<?xml version="1.0" encoding="utf-8"?>
<!-- Generator: Adobe Illustrator 11.0, SVG Export Plug-In . SVG Version: 6.0.0 Build 78)  -->
<!DOCTYPE svg PUBLIC "-//W3C//DTD SVG 1.0//EN"    "http://www.w3.org/TR/2001/REC-SVG-20010904/DTD/svg10.dtd" [
	<!ENTITY ns_flows "http://ns.adobe.com/Flows/1.0/">
	<!ENTITY ns_extend "http://ns.adobe.com/Extensibility/1.0/">
	<!ENTITY ns_ai "http://ns.adobe.com/AdobeIllustrator/10.0/">
	<!ENTITY ns_graphs "http://ns.adobe.com/Graphs/1.0/">
	<!ENTITY ns_vars "http://ns.adobe.com/Variables/1.0/">
	<!ENTITY ns_imrep "http://ns.adobe.com/ImageReplacement/1.0/">
	<!ENTITY ns_sfw "http://ns.adobe.com/SaveForWeb/1.0/">
	<!ENTITY ns_custom "http://ns.adobe.com/GenericCustomNamespace/1.0/">
	<!ENTITY ns_adobe_xpath "http://ns.adobe.com/XPath/1.0/">
	<!ENTITY ns_svg "http://www.w3.org/2000/svg">
	<!ENTITY ns_xlink "http://www.w3.org/1999/xlink">
]>
<svg 
	 xmlns:x="&ns_extend;" xmlns:i="&ns_ai;" xmlns:graph="&ns_graphs;" i:viewOrigin="129.707 629.2949" i:rulerOrigin="0 0" i:pageBounds="0 792 612 0"
	 xmlns="&ns_svg;" xmlns:xlink="&ns_xlink;" xmlns:a="http://ns.adobe.com/AdobeSVGViewerExtensions/3.0/"
	 width="305.275" height="134.25" viewBox="0 0 305.275 134.25" overflow="visible" enable-background="new 0 0 305.275 134.25"
	 xml:space="preserve">
	<metadata>
		<variableSets  xmlns="&ns_vars;">
			<variableSet  varSetName="binding1" locked="none">
				<variables></variables>
				<v:sampleDataSets  xmlns="&ns_custom;" xmlns:v="&ns_vars;"></v:sampleDataSets>
			</variableSet>
		</variableSets>
		<sfw  xmlns="&ns_sfw;">
			<slices></slices>
			<sliceSourceBounds  y="-7796" x="-54.336" width="489.318" height="16383" bottomLeftOrigin="true"></sliceSourceBounds>
		</sfw>
<?xpacket begin='﻿' id='W5M0MpCehiHzreSzNTczkc9d'?><x:xmpmeta xmlns:x='adobe:ns:meta/' x:xmptk='XMP toolkit 3.0-29, framework 1.6'>
<rdf:RDF xmlns:rdf='http://www.w3.org/1999/02/22-rdf-syntax-ns#' xmlns:iX='http://ns.adobe.com/iX/1.0/'>

 <rdf:Description rdf:about='uuid:478e65b1-4869-4d35-9c82-32c721a18c31'
  xmlns:pdf='http://ns.adobe.com/pdf/1.3/'>
  <pdf:Producer>Adobe PDF library 6.66</pdf:Producer>
 </rdf:Description>

 <rdf:Description rdf:about='uuid:478e65b1-4869-4d35-9c82-32c721a18c31'
  xmlns:tiff='http://ns.adobe.com/tiff/1.0/'>
 </rdf:Description>

 <rdf:Description rdf:about='uuid:478e65b1-4869-4d35-9c82-32c721a18c31'
  xmlns:xap='http://ns.adobe.com/xap/1.0/'
  xmlns:xapGImg='http://ns.adobe.com/xap/1.0/g/img/'>
  <xap:CreateDate>2022-09-06T12:00:40-07:00</xap:CreateDate>
  <xap:ModifyDate>2022-09-07T19:15:28Z</xap:ModifyDate>
  <xap:CreatorTool>Illustrator</xap:CreatorTool>
  <xap:MetadataDate>2022-09-06T12:00:40-07:00</xap:MetadataDate>
  <xap:Thumbnails>
   <rdf:Alt>
    <rdf:li rdf:parseType='Resource'>
     <xapGImg:format>JPEG</xapGImg:format>
     <xapGImg:width>256</xapGImg:width>
     <xapGImg:height>116</xapGImg:height>
     <xapGImg:image>/9j/4AAQSkZJRgABAgEASABIAAD/7QAsUGhvdG9zaG9wIDMuMAA4QklNA+0AAAAAABAASAAAAAEA&#xA;AQBIAAAAAQAB/+4ADkFkb2JlAGTAAAAAAf/bAIQABgQEBAUEBgUFBgkGBQYJCwgGBggLDAoKCwoK&#xA;DBAMDAwMDAwQDA4PEA8ODBMTFBQTExwbGxscHx8fHx8fHx8fHwEHBwcNDA0YEBAYGhURFRofHx8f&#xA;Hx8fHx8fHx8fHx8fHx8fHx8fHx8fHx8fHx8fHx8fHx8fHx8fHx8fHx8fHx8f/8AAEQgAdAEAAwER&#xA;AAIRAQMRAf/EAaIAAAAHAQEBAQEAAAAAAAAAAAQFAwIGAQAHCAkKCwEAAgIDAQEBAQEAAAAAAAAA&#xA;AQACAwQFBgcICQoLEAACAQMDAgQCBgcDBAIGAnMBAgMRBAAFIRIxQVEGE2EicYEUMpGhBxWxQiPB&#xA;UtHhMxZi8CRygvElQzRTkqKyY3PCNUQnk6OzNhdUZHTD0uIIJoMJChgZhJRFRqS0VtNVKBry4/PE&#xA;1OT0ZXWFlaW1xdXl9WZ2hpamtsbW5vY3R1dnd4eXp7fH1+f3OEhYaHiImKi4yNjo+Ck5SVlpeYmZ&#xA;qbnJ2en5KjpKWmp6ipqqusra6voRAAICAQIDBQUEBQYECAMDbQEAAhEDBCESMUEFURNhIgZxgZEy&#xA;obHwFMHR4SNCFVJicvEzJDRDghaSUyWiY7LCB3PSNeJEgxdUkwgJChgZJjZFGidkdFU38qOzwygp&#xA;0+PzhJSktMTU5PRldYWVpbXF1eX1RlZmdoaWprbG1ub2R1dnd4eXp7fH1+f3OEhYaHiImKi4yNjo&#xA;+DlJWWl5iZmpucnZ6fkqOkpaanqKmqq6ytrq+v/aAAwDAQACEQMRAD8A9U4q7FXYq7FXYq7FXYq7&#xA;FXYq7FXYq7FXYq7FXYq7FXYq7FXYq7FXYq7FXYq7FXYq7FXYq7FXYq7FXYq7FXYq7FXYq7FXYq7F&#xA;XYq7FXYq7FXYq7FXYq7FXYq7FXYq7FXYq7FXYq7FXYq7FXYq7FXYq7FXYq7FXYq7FXYq7FXYq7FX&#xA;Yq7FXYq7FXYq7FXYq7FXYq7FXYq7FXYq7FXYq7FXYq7FXYq7FXYq7FXYq7FXYq7FXYq7FXYq7FXY&#xA;q7FXYq7FXYq7FXYq7FXYq7FXYq7FXYq7FXYq7FXYq7FXYq7FXYq7FXYq7FXYq7FXYq7FXYq7FXYq&#xA;7FXYq7FXYq7FXYq7FXYq7FXYq7FXYq7FXYq7FXYq7FXYq7FXYq7FXYq7FXYq7FXYq7FXYq7FXYq7&#xA;FXYq7FXYq7FXYq7FXYq7FXYq7FXYq7FXYq7FXYq7FXYq7FXYq7FXYq7FXYq7FXYq7FXYq7FXYq7F&#xA;XYq7FXYq7FXYq7FXYq7FXYq7FXYq7FXYq7FXYq7FXYq7FXYq7FXYq7FXYq7FXYq7FXYq7FXYq7FX&#xA;Yq7FXYq7FXYq7FXYq7FXYq7FXYq7FXYq7FXYq7FXYq7FXYq7FXYq7FXYq7FXYq7FXYq7FXYq7FXY&#xA;q7FXYq7FXYq7FXYq7FXYq7FXYq7FXYq7FXYq7FXYq7FXYq7FXYq7FXYq7FXYq7FXYq7FXYq7FXYq&#xA;7FXYq7FXYq7FXYq7FXYq7FXYq7FXYq7FXYq7FXYq7FXYq7FXYq7FXYq7FXYq7FXYq7FXYq7FXYq7&#xA;FXYq7FXYq7FXYq7FXYq7FXYq7FXYq7FXYq7FXYq7FXYq7FXYq7FXYq7FXYq7FXYq7FXYq7FXYq7F&#xA;XYq7FXYq7FXYq7FXYq7FXYq7FXYq7FXYq7FXYq7FXYq7FXYq7FXYq7FXYq7FXYq7FXYq7FXYq7FX&#xA;Yq7FXYq7FXYq7FXYq7FXYq7FXYq7FXYq7FXYq7FXYq7FXYq7FXYq7FXYq7FXYq7FXYq7FXYq7FXY&#xA;q7FXYq7FXYq7FXYq7FXYq7FXYq7FXYq7FXYq7FXYq7FXYq7FXYq7FXYq7FXYq7FXYq7FXYq7FXYq&#xA;7FXYq7FXYq7FXYq7FXYq7FXYq7FXYq7FXYq7FXYq7FXYq7FXYq7FXYq7FXYq7FXYq7FXYq7FXYq7&#xA;FXYq7FXYq7FXYq7FXYq7FXYq7FXYq7FXYq7FXYq7FX//2Q==</xapGImg:image>
    </rdf:li>
   </rdf:Alt>
  </xap:Thumbnails>
 </rdf:Description>

 <rdf:Description rdf:about='uuid:478e65b1-4869-4d35-9c82-32c721a18c31'
  xmlns:xapMM='http://ns.adobe.com/xap/1.0/mm/'>
  <xapMM:DocumentID>uuid:4cee935d-3d96-40f3-a6d9-19cb49bee61e</xapMM:DocumentID>
 </rdf:Description>

 <rdf:Description rdf:about='uuid:478e65b1-4869-4d35-9c82-32c721a18c31'
  xmlns:dc='http://purl.org/dc/elements/1.1/'>
  <dc:format>image/svg+xml</dc:format>
 </rdf:Description>

</rdf:RDF>
</x:xmpmeta>
                                                                                                                                                                                                                                                                                                                                                                                                                                                                                                                                                                                                                                                                                                                                                                                                                                                                                                                                                                                                                                                                                                                                                                                                                                                                                                                                                                                                                                                                                                                                                                                                                                                                                                                                                                                                                                                                                                                                                                                                                                                                                                                                <?xpacket end='w'?>
			</metadata>
		<g id="Layer_1" i:layer="yes" i:dimmedPercent="50" i:rgbTrio="#4F008000FFFF">
			<g i:knockout="Off">
				<path i:knockout="Off" fill="#FFFFFF" d="M71.849,13.453v6.734c0,1.472,0.158,2.386,0.476,2.741
					c0.43,0.506,1.081,0.759,1.953,0.759h0.884v0.625h-9.938v-0.625h0.871c0.979,0,1.678-0.321,2.1-0.966
					c0.228-0.355,0.342-1.2,0.342-2.534V5.25c0-1.471-0.154-2.385-0.461-2.741c-0.444-0.506-1.104-0.759-1.98-0.759h-0.871V1.125
					h8.45c2.063,0,3.688,0.214,4.879,0.642c1.189,0.428,2.192,1.149,3.009,2.164c0.816,1.016,1.225,2.219,1.225,3.609
					c0,1.894-0.617,3.434-1.852,4.619s-2.978,1.778-5.231,1.778c-0.553,0-1.149-0.04-1.792-0.121
					C73.269,13.736,72.582,13.615,71.849,13.453z M71.849,12.471c0.59,0.114,1.113,0.2,1.57,0.257
					c0.456,0.057,0.846,0.085,1.17,0.085c1.158,0,2.157-0.459,2.998-1.377s1.262-2.106,1.262-3.565c0-1.003-0.201-1.935-0.602-2.796
					c-0.401-0.861-0.97-1.505-1.704-1.933C75.808,2.714,74.973,2.5,74.038,2.5c-0.568,0-1.298,0.108-2.188,0.325V12.471z"/>
				<path i:knockout="Off" fill="#FFFFFF" d="M87.939,14.5c-0.012,2.32,0.551,4.14,1.686,5.459s2.469,1.979,4.001,1.979
					c1.021,0,1.91-0.277,2.665-0.832c0.754-0.555,1.387-1.527,1.898-2.918l0.5,0.343c-0.24,1.59-0.936,3.024-2.086,4.303
					c-1.151,1.278-2.593,1.917-4.325,1.917c-1.881,0-3.491-0.729-4.83-2.189c-1.34-1.459-2.009-3.422-2.009-5.888
					c0-2.669,0.687-4.75,2.06-6.244s3.098-2.241,5.173-2.241c1.755,0,3.196,0.573,4.325,1.718c1.128,1.146,1.692,2.677,1.692,4.595
					H87.939z M87.939,13.5h7.188c-0.057-0.991-0.176-1.69-0.356-2.097c-0.282-0.631-0.703-1.126-1.263-1.487
					c-0.56-0.36-1.145-0.541-1.754-0.541c-0.938,0-1.777,0.364-2.518,1.091S88.063,12.204,87.939,13.5z"/>
				<path i:knockout="Off" fill="#FFFFFF" d="M105.037,11.357c1.511-2.113,3.142-3.17,4.892-3.17c1.603,0,3,0.686,4.193,2.056
					s1.79,3.243,1.79,5.62c0,2.775-0.921,5.01-2.762,6.703c-1.58,1.456-3.341,2.184-5.284,2.184c-0.909,0-1.832-0.166-2.77-0.495
					c-0.938-0.33-1.896-0.826-2.872-1.487V6.563c0-1.775-0.043-2.867-0.127-3.277c-0.085-0.409-0.218-0.688-0.398-0.836
					s-0.406-0.223-0.677-0.223c-0.316,0-0.712,0.092-1.186,0.273l-0.237-0.625L104.272,0h0.765V11.357z M105.037,12.447v9.333
					c0.58,0.568,1.18,0.997,1.801,1.286c0.62,0.289,1.255,0.434,1.903,0.434c1.035,0,2-0.567,2.894-1.703
					c0.893-1.135,1.34-2.787,1.34-4.956c0-1.998-0.447-3.533-1.34-4.606c-0.894-1.072-1.909-1.609-3.047-1.609
					c-0.604,0-1.207,0.153-1.81,0.46C106.323,11.313,105.742,11.767,105.037,12.447z"/>
				<path i:knockout="Off" fill="#FFFFFF" d="M122.537,11.357c1.511-2.113,3.142-3.17,4.892-3.17c1.603,0,3,0.686,4.193,2.056
					s1.79,3.243,1.79,5.62c0,2.775-0.921,5.01-2.762,6.703c-1.58,1.456-3.341,2.184-5.284,2.184c-0.909,0-1.832-0.166-2.77-0.495
					c-0.938-0.33-1.896-0.826-2.872-1.487V6.563c0-1.775-0.043-2.867-0.127-3.277c-0.085-0.409-0.218-0.688-0.398-0.836
					s-0.406-0.223-0.677-0.223c-0.316,0-0.712,0.092-1.186,0.273l-0.237-0.625L121.772,0h0.765V11.357z M122.537,12.447v9.333
					c0.58,0.568,1.18,0.997,1.801,1.286c0.62,0.289,1.255,0.434,1.903,0.434c1.035,0,2-0.567,2.894-1.703
					c0.893-1.135,1.34-2.787,1.34-4.956c0-1.998-0.447-3.533-1.34-4.606c-0.894-1.072-1.909-1.609-3.047-1.609
					c-0.604,0-1.207,0.153-1.81,0.46C123.823,11.313,123.242,11.767,122.537,12.447z"/>
				<path i:knockout="Off" fill="#FFFFFF" d="M141.162,0v20.75c0,0.985,0.07,1.639,0.211,1.959s0.357,0.563,0.65,0.729
					s0.839,0.249,1.639,0.249v0.625h-7.625v-0.625c0.719,0,1.21-0.074,1.473-0.223s0.469-0.396,0.617-0.739s0.223-1.002,0.223-1.976
					V6.563c0-1.778-0.039-2.871-0.115-3.279c-0.077-0.407-0.2-0.686-0.37-0.834s-0.387-0.223-0.649-0.223
					c-0.285,0-0.647,0.092-1.086,0.273l-0.279-0.625L140.41,0H141.162z"/>
				<path i:knockout="Off" fill="#FFFFFF" d="M148.198,14.5c-0.012,2.32,0.551,4.14,1.686,5.459s2.469,1.979,4.001,1.979
					c1.021,0,1.91-0.277,2.665-0.832c0.754-0.555,1.387-1.527,1.898-2.918l0.5,0.343c-0.24,1.59-0.936,3.024-2.086,4.303
					c-1.151,1.278-2.593,1.917-4.325,1.917c-1.881,0-3.491-0.729-4.83-2.189c-1.34-1.459-2.009-3.422-2.009-5.888
					c0-2.669,0.687-4.75,2.06-6.244s3.098-2.241,5.173-2.241c1.755,0,3.196,0.573,4.325,1.718c1.128,1.146,1.692,2.677,1.692,4.595
					H148.198z M148.198,13.5h7.188c-0.057-0.991-0.176-1.69-0.356-2.097c-0.282-0.631-0.703-1.126-1.263-1.487
					c-0.56-0.36-1.145-0.541-1.754-0.541c-0.938,0-1.777,0.364-2.518,1.091S148.322,12.204,148.198,13.5z"/>
				<path i:knockout="Off" fill="#FFFFFF" d="M184.855,12.501c1.604,0.342,2.803,0.888,3.598,1.639
					c1.104,1.047,1.654,2.327,1.654,3.841c0,1.149-0.363,2.25-1.092,3.303s-1.727,1.82-2.994,2.304
					c-1.268,0.484-3.205,0.726-5.809,0.726h-10.917v-0.625h0.862c0.957,0,1.645-0.31,2.062-0.931
					c0.259-0.402,0.389-1.259,0.389-2.569V5.25c0-1.448-0.164-2.362-0.49-2.741c-0.439-0.506-1.093-0.759-1.96-0.759h-0.862V1.125
					h10.003c1.865,0,3.361,0.138,4.488,0.411c1.707,0.412,3.01,1.14,3.91,2.185c0.898,1.045,1.348,2.247,1.348,3.606
					c0,1.165-0.354,2.207-1.061,3.127S186.234,12.056,184.855,12.501z M175.92,11.573c0.42,0.08,0.9,0.14,1.441,0.18
					c0.539,0.04,1.133,0.06,1.781,0.06c1.66,0,2.906-0.179,3.742-0.537c0.836-0.357,1.479-0.906,1.926-1.646
					s0.672-1.547,0.672-2.422c0-1.354-0.553-2.508-1.656-3.463s-2.715-1.433-4.832-1.433c-1.139,0-2.164,0.125-3.074,0.375V11.573z
					 M175.92,22.663c1.32,0.309,2.625,0.462,3.912,0.462c2.061,0,3.633-0.464,4.715-1.394s1.623-2.078,1.623-3.446
					c0-0.9-0.248-1.768-0.742-2.6c-0.496-0.832-1.295-1.488-2.396-1.967C181.928,13.24,180.564,13,178.939,13
					c-0.705,0-1.309,0.012-1.809,0.034c-0.5,0.023-0.903,0.063-1.21,0.12V22.663z"/>
				<path i:knockout="Off" fill="#FFFFFF" d="M197.703,8.188v3.534c1.307-2.355,2.646-3.534,4.021-3.534
					c0.625,0,1.143,0.192,1.551,0.575c0.41,0.383,0.615,0.826,0.615,1.329c0,0.446-0.15,0.824-0.447,1.133
					c-0.299,0.309-0.654,0.463-1.066,0.463c-0.402,0-0.85-0.197-1.342-0.594c-0.492-0.396-0.855-0.594-1.094-0.594
					c-0.203,0-0.424,0.114-0.66,0.343c-0.51,0.469-1.035,1.239-1.578,2.313v7.469c0,0.877,0.111,1.541,0.334,1.99
					c0.152,0.312,0.422,0.568,0.809,0.77c0.387,0.202,0.943,0.303,1.67,0.303v0.625h-8.125v-0.625c0.809,0,1.41-0.126,1.805-0.38
					c0.289-0.184,0.492-0.478,0.607-0.882c0.059-0.195,0.088-0.754,0.088-1.676v-6c0-1.852-0.037-2.953-0.111-3.307
					s-0.211-0.61-0.41-0.771s-0.445-0.241-0.74-0.241c-0.354,0-0.75,0.086-1.193,0.256l-0.17-0.625l4.721-1.875H197.703z"/>
				<path i:knockout="Off" fill="#FFFFFF" d="M212.438,8.188c2.373,0,4.277,0.898,5.715,2.695c1.221,1.535,1.83,3.298,1.83,5.287
					c0,1.399-0.336,2.815-1.01,4.248c-0.672,1.433-1.6,2.513-2.779,3.24c-1.182,0.728-2.496,1.092-3.943,1.092
					c-2.361,0-4.238-0.938-5.629-2.814c-1.176-1.58-1.764-3.354-1.764-5.322c0-1.432,0.357-2.855,1.07-4.271s1.65-2.462,2.814-3.139
					C209.904,8.526,211.137,8.188,212.438,8.188z M211.908,9.313c-0.604,0-1.211,0.18-1.82,0.538s-1.104,0.987-1.479,1.886
					c-0.377,0.898-0.564,2.054-0.564,3.464c0,2.275,0.453,4.238,1.359,5.888c0.906,1.65,2.1,2.475,3.58,2.475
					c1.105,0,2.016-0.455,2.734-1.365c0.717-0.91,1.076-2.475,1.076-4.693c0-2.775-0.598-4.96-1.793-6.553
					C214.191,9.859,213.16,9.313,211.908,9.313z"/>
				<path i:knockout="Off" fill="#FFFFFF" d="M229.938,8.188c2.373,0,4.277,0.898,5.715,2.695c1.221,1.535,1.83,3.298,1.83,5.287
					c0,1.399-0.336,2.815-1.01,4.248c-0.672,1.433-1.6,2.513-2.779,3.24c-1.182,0.728-2.496,1.092-3.943,1.092
					c-2.361,0-4.238-0.938-5.629-2.814c-1.176-1.58-1.764-3.354-1.764-5.322c0-1.432,0.357-2.855,1.07-4.271s1.65-2.462,2.814-3.139
					C227.404,8.526,228.637,8.188,229.938,8.188z M229.408,9.313c-0.604,0-1.211,0.18-1.82,0.538s-1.104,0.987-1.479,1.886
					c-0.377,0.898-0.564,2.054-0.564,3.464c0,2.275,0.453,4.238,1.359,5.888c0.906,1.65,2.1,2.475,3.58,2.475
					c1.105,0,2.016-0.455,2.734-1.365c0.717-0.91,1.076-2.475,1.076-4.693c0-2.775-0.598-4.96-1.793-6.553
					C231.691,9.859,230.66,9.313,229.408,9.313z"/>
				<path i:knockout="Off" fill="#FFFFFF" d="M244.357,0v15.559l4.018-3.63c0.844-0.754,1.336-1.231,1.473-1.431
					c0.09-0.133,0.137-0.267,0.137-0.399c0-0.222-0.096-0.413-0.283-0.574c-0.188-0.16-0.498-0.252-0.93-0.274V8.625h6.773v0.563
					c-0.922,0.023-1.688,0.168-2.299,0.434c-0.613,0.266-1.283,0.739-2.014,1.421l-4.023,3.631l4.041,5.103
					c1.125,1.395,1.871,2.287,2.24,2.676c0.535,0.546,1.006,0.9,1.408,1.063c0.279,0.116,0.766,0.174,1.459,0.174v0.625h-7.586
					v-0.625c0.432-0.011,0.725-0.076,0.879-0.195s0.23-0.287,0.23-0.504c0-0.262-0.229-0.683-0.684-1.263l-4.84-6.15v5.175
					c0,1.025,0.07,1.7,0.211,2.022s0.34,0.553,0.6,0.69c0.26,0.139,0.822,0.213,1.689,0.225v0.625h-7.813v-0.625
					c0.768,0,1.344-0.097,1.727-0.29c0.23-0.125,0.406-0.317,0.527-0.579c0.164-0.375,0.246-1.022,0.246-1.943V6.563
					c0-1.794-0.039-2.892-0.115-3.292s-0.203-0.678-0.379-0.831c-0.176-0.152-0.404-0.229-0.689-0.229
					c-0.23,0-0.576,0.097-1.037,0.29l-0.279-0.625L243.59,0H244.357z"/>
				<path i:knockout="Off" fill="#FFFFFF" d="M35.856,114.125H23.952l-2.066,4.774c-0.512,1.193-0.767,2.085-0.767,2.674
					c0,0.469,0.222,0.881,0.665,1.236s1.401,0.585,2.876,0.69v0.813h-9.655V123.5c1.277-0.229,2.104-0.525,2.48-0.891
					c0.767-0.73,1.616-2.214,2.549-4.452l10.856-25.095h0.871l10.562,25.409c0.856,2.054,1.635,3.387,2.334,3.998
					s1.673,0.955,2.921,1.03v0.813h-12.13V123.5c1.217-0.06,2.04-0.263,2.469-0.609c0.428-0.346,0.643-0.768,0.643-1.265
					c0-0.662-0.301-1.708-0.901-3.138L35.856,114.125z M35.16,112.438l-5.118-12.358l-5.359,12.358H35.16z"/>
				<path i:knockout="Off" fill="#FFFFFF" d="M62.888,103v7.063h-0.813c-0.563-2.227-1.286-3.742-2.167-4.545
					c-0.882-0.803-2.004-1.205-3.366-1.205c-1.037,0-1.875,0.279-2.512,0.838s-0.955,1.178-0.955,1.856
					c0,0.846,0.227,1.569,0.681,2.173c0.439,0.619,1.375,1.276,2.807,1.971l3.3,1.607c3.059,1.492,4.588,3.458,4.588,5.897
					c0,1.884-0.71,3.401-2.13,4.554s-3.008,1.729-4.766,1.729c-1.262,0-2.704-0.219-4.326-0.656
					c-0.496-0.146-0.902-0.219-1.217-0.219c-0.346,0-0.616,0.188-0.812,0.563h-0.813v-7.375h0.813c0.422,2.11,1.228,3.7,2.417,4.771
					s2.521,1.604,3.997,1.604c1.039,0,1.886-0.306,2.541-0.918c0.654-0.612,0.982-1.35,0.982-2.212c0-1.043-0.37-1.92-1.109-2.631
					c-0.74-0.711-2.202-1.609-4.387-2.695c-2.186-1.086-3.617-2.064-4.297-2.938c-0.68-0.857-1.02-1.941-1.02-3.25
					c0-1.7,0.58-3.122,1.741-4.266c1.16-1.144,2.662-1.716,4.505-1.716c0.809,0,1.789,0.177,2.942,0.529
					c0.764,0.23,1.273,0.346,1.528,0.346c0.239,0,0.427-0.054,0.562-0.161s0.292-0.345,0.472-0.714H62.888z"/>
				<path i:knockout="Off" fill="#FFFFFF" d="M80.874,103v7.063h-0.813c-0.563-2.227-1.286-3.742-2.167-4.545
					c-0.882-0.803-2.004-1.205-3.366-1.205c-1.037,0-1.875,0.279-2.512,0.838s-0.955,1.178-0.955,1.856
					c0,0.846,0.227,1.569,0.681,2.173c0.439,0.619,1.375,1.276,2.807,1.971l3.3,1.607c3.059,1.492,4.588,3.458,4.588,5.897
					c0,1.884-0.71,3.401-2.13,4.554s-3.008,1.729-4.766,1.729c-1.262,0-2.704-0.219-4.326-0.656
					c-0.496-0.146-0.902-0.219-1.217-0.219c-0.346,0-0.616,0.188-0.812,0.563h-0.813v-7.375h0.813c0.422,2.11,1.228,3.7,2.417,4.771
					s2.521,1.604,3.997,1.604c1.039,0,1.886-0.306,2.541-0.918c0.654-0.612,0.982-1.35,0.982-2.212c0-1.043-0.37-1.92-1.109-2.631
					c-0.74-0.711-2.202-1.609-4.387-2.695c-2.186-1.086-3.617-2.064-4.297-2.938c-0.68-0.857-1.02-1.941-1.02-3.25
					c0-1.7,0.58-3.122,1.741-4.266c1.16-1.144,2.662-1.716,4.505-1.716c0.809,0,1.789,0.177,2.942,0.529
					c0.764,0.23,1.273,0.346,1.528,0.346c0.239,0,0.427-0.054,0.562-0.161s0.292-0.345,0.472-0.714H80.874z"/>
				<path i:knockout="Off" fill="#FFFFFF" d="M92.61,103v16.625c0,1.3,0.092,2.165,0.275,2.595c0.184,0.431,0.455,0.752,0.815,0.963
					c0.359,0.212,1.017,0.317,1.972,0.317v0.813h-10V123.5c1.017,0,1.699-0.098,2.049-0.294s0.626-0.521,0.831-0.975
					s0.308-1.322,0.308-2.606v-7.938c0-2.271-0.068-3.743-0.204-4.414c-0.106-0.488-0.273-0.826-0.501-1.016
					c-0.228-0.188-0.538-0.283-0.932-0.283c-0.424,0-0.939,0.113-1.545,0.338L85.36,105.5l6.253-2.5H92.61z M90.778,92.25
					c0.629,0,1.164,0.222,1.606,0.663c0.441,0.442,0.663,0.978,0.663,1.606c0,0.63-0.222,1.17-0.663,1.619
					c-0.442,0.449-0.978,0.674-1.606,0.674c-0.63,0-1.17-0.225-1.619-0.674s-0.674-0.989-0.674-1.619
					c0-0.629,0.221-1.164,0.663-1.606C89.59,92.472,90.134,92.25,90.778,92.25z"/>
				<path i:knockout="Off" fill="#FFFFFF" d="M111.701,103v7.063h-0.813c-0.563-2.227-1.286-3.742-2.167-4.545
					c-0.882-0.803-2.004-1.205-3.366-1.205c-1.037,0-1.875,0.279-2.512,0.838s-0.955,1.178-0.955,1.856
					c0,0.846,0.227,1.569,0.681,2.173c0.439,0.619,1.375,1.276,2.807,1.971l3.3,1.607c3.059,1.492,4.588,3.458,4.588,5.897
					c0,1.884-0.71,3.401-2.13,4.554s-3.008,1.729-4.766,1.729c-1.262,0-2.704-0.219-4.326-0.656
					c-0.496-0.146-0.902-0.219-1.217-0.219c-0.346,0-0.616,0.188-0.812,0.563h-0.813v-7.375h0.813c0.422,2.11,1.228,3.7,2.417,4.771
					s2.521,1.604,3.997,1.604c1.039,0,1.886-0.306,2.541-0.918c0.654-0.612,0.982-1.35,0.982-2.212c0-1.043-0.37-1.92-1.109-2.631
					c-0.74-0.711-2.202-1.609-4.387-2.695c-2.186-1.086-3.617-2.064-4.297-2.938c-0.68-0.857-1.02-1.941-1.02-3.25
					c0-1.7,0.58-3.122,1.741-4.266c1.16-1.144,2.662-1.716,4.505-1.716c0.809,0,1.789,0.177,2.942,0.529
					c0.764,0.23,1.273,0.346,1.528,0.346c0.239,0,0.427-0.054,0.562-0.161s0.292-0.345,0.472-0.714H111.701z"/>
				<path i:knockout="Off" fill="#FFFFFF" d="M122.375,96.813v6.813h4.826v1.563h-4.826v13.405c0,1.339,0.188,2.241,0.565,2.708
					s0.86,0.699,1.452,0.699c0.487,0,0.96-0.152,1.418-0.458s0.813-0.757,1.064-1.354h0.875c-0.523,1.472-1.264,2.579-2.22,3.322
					c-0.957,0.744-1.943,1.115-2.959,1.115c-0.688,0-1.36-0.192-2.019-0.575c-0.658-0.384-1.144-0.934-1.457-1.648
					c-0.314-0.715-0.471-1.817-0.471-3.308v-13.906h-3.25v-0.736c0.824-0.33,1.667-0.891,2.528-1.68s1.636-1.727,2.321-2.813
					c0.35-0.572,0.838-1.621,1.463-3.146H122.375z"/>
				<path i:knockout="Off" fill="#FFFFFF" d="M132.591,111.438c-0.016,3.041,0.731,5.427,2.24,7.156s3.282,2.594,5.319,2.594
					c1.357,0,2.538-0.366,3.542-1.101c1.003-0.733,1.844-2.013,2.523-3.837l0.688,0.451c-0.316,2.1-1.235,3.997-2.755,5.692
					c-1.521,1.696-3.425,2.544-5.713,2.544c-2.484,0-4.61-0.967-6.379-2.9c-1.77-1.934-2.653-4.532-2.653-7.798
					c0-3.535,0.906-6.293,2.721-8.271s4.091-2.968,6.831-2.968c2.318,0,4.223,0.766,5.713,2.296c1.49,1.531,2.235,3.578,2.235,6.142
					H132.591z M132.591,110.125h9.625c-0.076-1.322-0.234-2.254-0.477-2.795c-0.379-0.842-0.942-1.503-1.691-1.983
					c-0.75-0.48-1.533-0.722-2.35-0.722c-1.256,0-2.38,0.485-3.371,1.454C133.336,107.049,132.757,108.397,132.591,110.125z"/>
				<path i:knockout="Off" fill="#FFFFFF" d="M164.292,121.934c-1.008,1.08-1.992,1.852-2.954,2.313
					c-0.963,0.46-2,0.691-3.112,0.691c-2.255,0-4.225-0.943-5.908-2.832s-2.525-4.314-2.525-7.279c0-2.964,0.932-5.676,2.796-8.136
					s4.263-3.69,7.194-3.69c1.818,0,3.322,0.603,4.51,1.807v-3.869c0-2.354-0.057-3.801-0.169-4.341
					c-0.112-0.539-0.288-0.906-0.527-1.102c-0.24-0.195-0.539-0.293-0.898-0.293c-0.391,0-0.907,0.12-1.551,0.36l-0.292-0.813
					l6.17-2.5h1.018v23.938c0,2.402,0.056,3.868,0.168,4.397s0.292,0.899,0.539,1.108c0.247,0.21,0.535,0.314,0.865,0.314
					c0.404,0,0.944-0.127,1.618-0.383l0.247,0.813l-6.147,2.5h-1.04V121.934z M164.292,120.358v-10.558
					c-0.09-1.041-0.359-1.981-0.808-2.821s-1.042-1.473-1.782-1.9s-1.461-0.642-2.163-0.642c-1.315,0-2.488,0.593-3.52,1.777
					c-1.36,1.561-2.04,3.84-2.04,6.84c0,3.03,0.657,5.352,1.973,6.964c1.314,1.613,2.779,2.419,4.395,2.419
					C161.706,122.438,163.021,121.745,164.292,120.358z"/>
				<path i:knockout="Off" fill="#FFFFFF" d="M209.33,115.875l0.75,0.157l-2.625,8.28H183.83V123.5h1.145
					c1.285,0,2.205-0.423,2.76-1.27c0.314-0.483,0.471-1.602,0.471-3.355V99.188c0-1.929-0.209-3.136-0.627-3.622
					c-0.584-0.668-1.451-1.003-2.604-1.003h-1.145V93.75h13.75v0.813c-1.605-0.015-2.732,0.135-3.379,0.448
					s-1.088,0.709-1.326,1.187c-0.238,0.479-0.357,1.621-0.357,3.428v19.248c0,1.25,0.121,2.109,0.361,2.576
					c0.18,0.316,0.457,0.55,0.834,0.7c0.375,0.15,1.547,0.226,3.516,0.226h2.23c2.344,0,3.988-0.172,4.936-0.517
					s1.811-0.956,2.592-1.833S208.549,117.765,209.33,115.875z"/>
				<path i:knockout="Off" fill="#FFFFFF" d="M219.688,103v16.625c0,1.3,0.092,2.165,0.275,2.595
					c0.184,0.431,0.455,0.752,0.815,0.963c0.359,0.212,1.017,0.317,1.972,0.317v0.813h-10V123.5c1.017,0,1.699-0.098,2.049-0.294
					s0.626-0.521,0.831-0.975s0.308-1.322,0.308-2.606v-7.938c0-2.271-0.068-3.743-0.204-4.414
					c-0.106-0.488-0.273-0.826-0.501-1.016c-0.228-0.188-0.538-0.283-0.932-0.283c-0.424,0-0.939,0.113-1.545,0.338l-0.318-0.813
					l6.253-2.5H219.688z M217.855,92.25c0.629,0,1.164,0.222,1.606,0.663c0.441,0.442,0.663,0.978,0.663,1.606
					c0,0.63-0.222,1.17-0.663,1.619c-0.442,0.449-0.978,0.674-1.606,0.674c-0.63,0-1.17-0.225-1.619-0.674s-0.674-0.989-0.674-1.619
					c0-0.629,0.221-1.164,0.663-1.606C216.667,92.472,217.211,92.25,217.855,92.25z"/>
				<path i:knockout="Off" fill="#FFFFFF" d="M224.422,103.625h9.683v0.813h-0.632c-0.586,0-1.03,0.144-1.331,0.429
					s-0.451,0.669-0.451,1.149c0,0.526,0.154,1.15,0.463,1.872l4.781,11.411l4.781-11.84c0.346-0.842,0.519-1.48,0.519-1.917
					c0-0.21-0.061-0.383-0.181-0.519c-0.166-0.225-0.376-0.379-0.632-0.462c-0.256-0.082-0.774-0.124-1.556-0.124v-0.813h6.752
					v0.813c-0.782,0.063-1.323,0.224-1.624,0.485c-0.526,0.463-1,1.234-1.421,2.313l-7.215,17.701h-1.014l-7.314-17.454
					c-0.331-0.818-0.646-1.405-0.947-1.762c-0.301-0.355-0.685-0.655-1.15-0.897c-0.256-0.137-0.759-0.266-1.511-0.387V103.625z"/>
				<path i:knockout="Off" fill="#FFFFFF" d="M255.638,103v16.625c0,1.3,0.092,2.165,0.275,2.595
					c0.184,0.431,0.455,0.752,0.815,0.963c0.359,0.212,1.017,0.317,1.972,0.317v0.813h-10V123.5c1.017,0,1.699-0.098,2.049-0.294
					s0.626-0.521,0.831-0.975s0.308-1.322,0.308-2.606v-7.938c0-2.271-0.068-3.743-0.204-4.414
					c-0.106-0.488-0.273-0.826-0.501-1.016c-0.228-0.188-0.538-0.283-0.932-0.283c-0.424,0-0.939,0.113-1.545,0.338l-0.318-0.813
					l6.253-2.5H255.638z M253.806,92.25c0.629,0,1.164,0.222,1.606,0.663c0.441,0.442,0.663,0.978,0.663,1.606
					c0,0.63-0.222,1.17-0.663,1.619c-0.442,0.449-0.978,0.674-1.606,0.674c-0.63,0-1.17-0.225-1.619-0.674s-0.674-0.989-0.674-1.619
					c0-0.629,0.221-1.164,0.663-1.606C252.617,92.472,253.161,92.25,253.806,92.25z"/>
				<path i:knockout="Off" fill="#FFFFFF" d="M267.416,107.357c2.416-2.904,4.721-4.357,6.912-4.357
					c1.125,0,2.094,0.283,2.904,0.848s1.457,1.494,1.938,2.789c0.33,0.904,0.496,2.289,0.496,4.156v8.832
					c0,1.314,0.105,2.206,0.318,2.674c0.166,0.378,0.436,0.673,0.809,0.884c0.371,0.212,1.059,0.317,2.061,0.317v0.813h-10.25V123.5
					h0.424c0.955,0,1.623-0.146,2.004-0.441s0.645-0.729,0.795-1.304c0.059-0.227,0.09-0.937,0.09-2.13v-8.488
					c0-1.886-0.244-3.255-0.73-4.107s-1.305-1.279-2.455-1.279c-1.779,0-3.551,0.981-5.314,2.942v10.933
					c0,1.405,0.083,2.274,0.249,2.606c0.21,0.438,0.501,0.759,0.872,0.963c0.369,0.204,1.121,0.306,2.254,0.306v0.813h-10.188V123.5
					h0.44c1.028,0,1.723-0.268,2.082-0.805c0.359-0.536,0.54-1.56,0.54-3.07v-7.75c0-2.467-0.058-3.97-0.171-4.508
					s-0.288-0.904-0.522-1.1c-0.235-0.195-0.55-0.293-0.943-0.293c-0.424,0-0.932,0.113-1.522,0.338l-0.341-0.813l6.272-2.5h0.978
					V107.357z"/>
				<path i:knockout="Off" fill="#FFFFFF" d="M289.998,116.729c-1.258-0.616-2.225-1.477-2.898-2.581
					c-0.676-1.104-1.012-2.326-1.012-3.664c0-2.043,0.77-3.802,2.309-5.274s3.508-2.21,5.91-2.21c1.967,0,3.672,0.479,5.113,1.438
					h4.369c0.645,0,1.02,0.019,1.125,0.056s0.18,0.101,0.227,0.188c0.09,0.134,0.135,0.371,0.135,0.711
					c0,0.386-0.039,0.652-0.115,0.801c-0.045,0.074-0.125,0.133-0.238,0.178s-0.498,0.066-1.15,0.066h-2.697
					c0.842,1.088,1.264,2.477,1.264,4.167c0,1.933-0.734,3.586-2.203,4.96s-3.439,2.061-5.912,2.061
					c-1.02,0-2.061-0.152-3.123-0.459c-0.666,0.568-1.115,1.065-1.35,1.491s-0.35,0.788-0.35,1.087c0,0.255,0.123,0.502,0.371,0.74
					c0.248,0.239,0.734,0.411,1.457,0.516c0.422,0.064,1.475,0.12,3.162,0.167c3.1,0.08,5.109,0.19,6.027,0.333
					c1.4,0.195,2.518,0.715,3.354,1.557c0.836,0.843,1.254,1.88,1.254,3.114c0,1.7-0.799,3.295-2.393,4.784
					c-2.348,2.196-5.408,3.295-9.184,3.295c-2.904,0-5.357-0.652-7.357-1.957c-1.129-0.75-1.691-1.529-1.691-2.339
					c0-0.36,0.082-0.72,0.25-1.079c0.256-0.556,0.785-1.328,1.588-2.317c0.105-0.135,0.879-0.944,2.316-2.429
					c-0.787-0.469-1.342-0.889-1.668-1.26c-0.324-0.37-0.486-0.79-0.486-1.26c0-0.529,0.213-1.149,0.641-1.86
					S288.453,118.031,289.998,116.729z M289.799,124.313c-0.709,0.759-1.244,1.466-1.605,2.121
					c-0.363,0.653-0.543,1.257-0.543,1.808c0,0.714,0.436,1.339,1.309,1.875c1.504,0.922,3.678,1.384,6.521,1.384
					c2.707,0,4.703-0.474,5.99-1.42c1.285-0.948,1.93-1.958,1.93-3.031c0-0.775-0.385-1.327-1.15-1.655
					c-0.783-0.328-2.332-0.521-4.646-0.581C294.219,124.725,291.617,124.559,289.799,124.313z M293.922,104.125
					c-1.105,0-2.031,0.442-2.777,1.325c-0.746,0.884-1.119,2.239-1.119,4.065c0,2.365,0.506,4.199,1.521,5.502
					c0.777,0.988,1.762,1.482,2.957,1.482c1.135,0,2.066-0.427,2.799-1.28c0.73-0.854,1.098-2.193,1.098-4.021
					c0-2.38-0.516-4.244-1.545-5.592C296.094,104.619,295.115,104.125,293.922,104.125z"/>
			</g>
			<path i:knockout="Off" fill="none" stroke="#FFFFFF" stroke-width="5" d="M16.416,52.839c1.828-1.356,3.315-3.484,5.71-4.542
				c-6.322-1-16.898-3.086-19.288,4.886c-2.137,7.132,6.341,14.594,11.971,16.893c12.888,5.26,36.431,0.039,49.097-4.524
				c12.865-4.637,86.905-35.958,89.649-5.773c1.809,19.898-39.426,14.063-17.266,4.438"/>
			<path i:knockout="Off" fill="none" stroke="#FFFFFF" stroke-width="5" d="M288.518,52.965c-1.689-1.356-3.059-3.484-5.27-4.542
				c5.824-1,15.619-3.086,17.828,4.886c1.988,7.131-5.855,14.594-11.061,16.893c-11.941,5.26-33.74,0.039-45.451-4.524
				c-11.908-4.637-80.46-35.958-82.998-5.773c-1.692,19.897,36.501,14.063,15.975,4.438"/>
		</g>
	</svg>
