<svg xmlns="http://www.w3.org/2000/svg"  width="416.8" height="84.9" overflow="visible" xmlns:v="https://vecta.io/nano"><g fill="#f7dd15"><path d="M27.7 1.4h4.5c.4 0 .8 0 1.2-.1.4 0 .8 0 1.2.2h.6l1.1.3c.3.1.6.3.8.5.4.6.6 1.3.7 2.2l.1 2.9v11.1 43.6 15.2l.1 3.4c.1 1.2-.1 2.2-.5 2.8-.3.4-.7.7-1.1.8l-1.6.4h-3H27c-.4 0-.8 0-1.3.1-.4 0-.9 0-1.3-.1h-.6c-.4-.2-.8-.3-1.1-.4a1.27 1.27 0 0 1-.9-.7c-.4-.5-.6-1.1-.6-1.9v-2.5-9-25.3-7.6l.1-2.2c.1-.8 0-1.5-.2-2.1-.4-1.4-1.2-2.1-2.3-2.2l-4.1-.2H6c-1.1 0-2.2 0-3.2-.1S1 30.1.5 29.4c-.2-.3-.2-.6-.2-.9s0-.6-.1-1c-.2-.4-.2-.8-.2-1.3s.1-.9.1-1.3v-3.2c0-1.1.2-2 .6-2.6s1-.9 1.7-1l2.3-.4h1.2c.5-.2 1-.3 1.5-.3s1-.1 1.5-.2l2.7-.8c.8-.2 1.7-.6 2.6-1 1.8-.8 3.4-1.8 4.7-3.1s2.5-2.7 3.4-4.3c.5-.9.9-2 1.3-3.3s1-2.2 1.7-2.7c.4-.3.8-.5 1.3-.6.2-.1.3-.1.5-.1s.4.2.6.1zm63.2 3.7c.7 1 1.2 2.1 1.6 3.3.3 1.2.4 2.7.4 4.4l-.3 1.9c-.2.6-.3 1.1-.6 1.6-.1.1-.1.2-.2.4l-.2.4c-.1.2-.2.4-.4.6-.1.2-.2.4-.4.6a6.59 6.59 0 0 1-2.3 2.1c-.9.5-1.9 1-3 1.4-.3.1-.7.2-1.1.2s-.8.1-1.1.2h-.6-.6-1.9-4-1.3c-.5 0-.8.1-1.1.3s-.5.6-.5 1.2v1.6 6.2 1.2c0 .4-.1.8-.2 1s-.4.4-.8.5c-.2.1-.5.1-.7 0s-.5 0-.8 0h-2.7-1c-.3 0-.5-.1-.7-.3s-.3-.4-.3-.7v-1-28-1.6c0-.6.1-1 .2-1.3.1-.2.4-.3.7-.5h.2.2H81h.8c.2 0 .5 0 .8.1h.4a.9.9 0 0 0 .5.1c.2 0 .4 0 .5.1h.4c.1 0 .3 0 .4.1.5.2 1 .3 1.5.4s1 .3 1.4.6c.2.1.3.2.5.3s.4.2.6.4c.2.1.3.2.4.3l.4.4.3.4c.4.3.7.7 1 1.1zm-5.2 7.7c.1-.3.1-.8.1-1.3a4.44 4.44 0 0 0-.2-1.3c-.2-.7-.4-1.2-.7-1.7a3.61 3.61 0 0 0-1.3-1.1c-.5-.3-1.1-.5-1.7-.6l-2.2-.3h-2.5-2.4c-.1 0-.2.1-.3.1h-.3a.9.9 0 0 0-.6.6c-.1.3-.2.6-.2 1v1.2 4.5 1.3c0 .5.1.8.2 1.1.1.2.3.3.6.4s.5.2.8.2h1 1l4.6-.2c1.4-.2 2.4-.7 3.2-1.7.2-.3.3-.6.5-.9.1-.5.3-.9.4-1.3zm40.2 20.6c.1.2.1.4 0 .5-.1.2-.2.3-.3.3-.2.2-.4.2-.8.2h-1-2.6c-.5 0-.9 0-1.3-.1s-.7-.2-.8-.5c-.3-.4-.4-.9-.4-1.5s-.1-1.2-.2-1.7v-.4-.3c-.1-.4-.1-.8-.1-1.2s0-.8-.1-1.2v-.4c-.1-.3-.1-.7-.2-1.1s-.1-.7-.2-1.1c-.3-.7-.5-1.4-.9-1.9s-.8-1-1.5-1.3c-.2-.1-.3-.1-.5-.1s-.3-.1-.5-.1c-.6-.2-1.2-.3-2-.3h-2.2-3.9c-.3.1-.5.1-.7.1s-.3.1-.5.3c-.3.3-.4.8-.3 1.5s0 1.3 0 1.8v6 .8.8.7c0 .2 0 .4-.1.5a.9.9 0 0 1-.6.6c-.2.1-.3.1-.6.1h-.7-2.1-1.6c-.6 0-1-.1-1.3-.3s-.4-.4-.4-.9V32 3.4 2.3c0-.4.1-.7.2-.9s.4-.3.7-.5h.2.2 16 1.4c.4 0 .9.1 1.3.2a.9.9 0 0 0 .5.1.9.9 0 0 1 .5.1c.2.1.4.1.7.2l.7.2c.8.3 1.5.8 2.2 1.3s1.2 1.1 1.6 1.7c.1.2.2.3.3.5s.2.3.3.5c.3.4.4.9.6 1.4l.4 1.6v.4c0 .1 0 .3.1.4v.4c.1.3.1.6 0 .9s-.1.7-.1.9c-.1.3-.1.5-.1.7s0 .4-.1.6l-.5 1.3-.6 1.2c-.1.1-.1.2-.2.3s-.2.2-.2.3c-.1.1-.2.3-.3.4a1.38 1.38 0 0 1-.4.3c-.2.2-.4.3-.6.5s-.4.3-.6.5c-.1.1-.3.2-.4.3s-.2.2-.3.4 0 .3.1.5l.3.3c.3.3.6.5.9.8s.6.5.8.9c.4.5.7 1.1.9 1.6s.4 1.2.6 1.9c.1.3.1.6.1.9s.1.6.1.9v.5.5.4.4.4.4c.1.3.1.6.1 1s0 .7.1 1l.1.8c.1.3.1.6.2.8s.5.6.6.9zm-7.8-21.3c.1-.3.1-.8 0-1.3s-.1-.8-.1-1.1c-.1-.1-.1-.2-.1-.3s0-.2-.1-.3a3.62 3.62 0 0 0-2.1-2.1c-.5-.3-1.1-.4-1.8-.4h-2.2-5.5c-.1.1-.1.1-.2.1h-.2c-.4.1-.6.3-.8.5-.2.3-.2.6-.2 1v1.2 4.4 1.1a2.39 2.39 0 0 0 .2.9c.1.2.3.3.6.4s.6.1.9.1h1.1 1 2.8.7c.2 0 .5 0 .7-.1h.6c.3-.1.5-.1.7-.1s.5 0 .7-.1l1.4-.6a2.41 2.41 0 0 0 1-1c.2-.3.3-.6.4-.9.3-.5.4-.9.5-1.4zM132.8.9h4.1 1c.3 0 .6.1.7.4.2.2.2.5.3.8s0 .7 0 1.1v4.1 16.4 7.7 1.4c0 .5-.1.9-.2 1.1s-.4.4-.8.5c-.2.1-.5.1-.7 0h-.8-2.8-1c-.3 0-.5-.1-.7-.3s-.3-.4-.3-.7v-1-4.1-17.2-6.8-1.6c0-.6.1-1 .2-1.3.1-.2.3-.3.6-.5h.3c-.1 0 0 0 .1 0zm10.6 0h3.8 1.1c.4 0 .7.1.9.2.3.2.5.4.6.8l.3 1 .6 1.8.6 1.8 1.9 5.8 1.9 5.8c.2.5.3 1.1.5 1.6s.3 1.1.5 1.6l.3.8c.1.2.2.5.4.8 0 .1.1.1.1.1s.1.1.2.1c.3 0 .6-.1.7-.4l.3-.8c.3-.7.5-1.3.7-2l.7-2.1 2-6.2 2-6.2c.2-.5.3-1 .5-1.5s.3-1 .5-1.5l.3-.8c.1-.3.2-.5.5-.6.2-.2.5-.2.8-.2h.9 3.2.9c.3 0 .6.1.8.2.3.2.4.4.3.9l-.3 1.1c-.3.7-.5 1.5-.8 2.2-.2.8-.5 1.5-.7 2.3-.1.2-.2.4-.2.6s-.1.4-.2.6c-.3.7-.5 1.3-.7 2l-.7 2.1-2.5 7.7-2.5 7.7c-.3.7-.5 1.5-.8 2.2l-.7 2.2c-.2.4-.3.8-.5 1.2a1.27 1.27 0 0 1-.9.7c-.3.1-.5.1-.8.1h-.9-3.4-1.1c-.4 0-.7-.1-1-.2-.3-.2-.6-.5-.7-.9s-.2-.8-.4-1.2l-.6-2-.6-2-2-6-2-6-.8-2.7-.9-2.7-.3-.8-.3-.8-.8-2.6-.9-2.6c-.1-.3-.1-.6-.2-.8s-.2-.5-.3-.8c0-.2-.1-.3-.1-.5s0-.3.1-.4c.1-.2.3-.4.6-.4h.2c.1 0-.1-.3-.1-.3zm58 31.4c0 .1.1.3.2.5s.1.4.2.6.1.4 0 .6-.1.3-.3.4c-.3.2-.7.2-1.3.2h-1.4-2.2-.7c-.2 0-.4 0-.6-.1-.3-.1-.6-.3-.8-.6s-.3-.5-.4-.8l-.3-.8c-.2-.5-.3-1-.5-1.5s-.4-1-.5-1.5l-.3-.8-.3-.6c-.1-.2-.2-.4-.4-.5s-.4-.2-.8-.3h-.4-.4-7.4-1.7c-.6 0-1.1.1-1.4.4-.3.2-.4.4-.5.8l-.3.9c-.3.5-.5 1.1-.6 1.7l-.6 1.7c-.1.3-.2.6-.4 1-.1.3-.3.6-.5.8-.2.1-.4.2-.7.3-.3 0-.6.1-1 .1H174h-1-1.5c-.6 0-1-.1-1.2-.2s-.2-.2-.3-.4 0-.4 0-.6.1-.4.2-.6.1-.3.2-.5l.9-2.2.8-2.2.3-.8.3-.8.8-2 .8-2c.3-.6.5-1.2.7-1.9l.7-1.9 2-5.2 2-5.2c.1-.2.1-.3.1-.4s.1-.3.1-.4l.8-2 .8-2c.2-.3.3-.7.4-1.1s.3-.7.6-.9c.2-.1.4-.2.6-.2h.2.2 4.1 1.1c.4 0 .7.1.9.2.3.2.6.5.7.8.1.4.2.7.4 1.1l.6 1.6.6 1.6c.1.2.1.4.2.6s.1.4.2.6c.3.6.5 1.2.7 1.9l.7 1.9 1.8 4.8c.5 1.6 1.2 3.2 1.8 4.8.1.1.1.2.1.4 0 .1.1.2.1.4l.6 1.5.6 1.5c.1.3.2.5.3.7s.1.5.2.7l1.1 3c.3 1 .7 2 1.1 3 .1.1.1.2.1.3s-.1-.5-.1-.4zm-12.2-10.9c.4-.2.6-.4.6-.8s-.1-.7-.3-1.1c-.1-.1-.1-.2-.1-.4 0-.1 0-.2-.1-.4l-1.1-3.3c-.3-1.1-.7-2.2-1.2-3.3-.1-.2-.1-.4-.2-.6s-.1-.5-.2-.7-.2-.4-.3-.5c-.1-.2-.3-.2-.5-.2-.1.1-.1.1-.2.1s-.1.1-.2.1c-.3.3-.4.7-.5 1.1s-.2.9-.4 1.3c-.4.9-.7 1.8-1 2.7l-1 2.7-.3.9-.3 1a1.1 1.1 0 0 0 0 .8c.2.2.4.3.8.4s.7 0 1.1 0h3.6.9c.3 0 .7.3.9.2zM218.4.8h4.8 1.2a1.69 1.69 0 0 1 1 .3c.1.1.2.2.2.3s.1.3.1.4V2v.4.5 1.8.6c0 .2 0 .4-.1.6-.2.5-.5.8-.9.8H223h-4.8c-.6 0-1.2 0-1.6.1s-.8.3-.9.9v.4.4.6.6 4.2 13.6 4.4c0 .5 0 .9-.1 1.3s-.2.6-.6.8c-.2 0-.5.1-.8.1h-.8-3.2-1c-.3 0-.5-.1-.7-.3-.2-.3-.2-.6-.2-1v-1.2-4.7V14v-4-.7c0-.2 0-.4-.1-.6v-.4-.4c-.2-.5-.5-.8-1-.9-.5 0-1.1-.1-1.7-.1h-4.4-1.2c-.5 0-.8 0-1-.1-.3-.1-.4-.2-.6-.4-.1-.2-.1-.4-.2-.6V5 2.8c0-.4 0-.8.1-1.1s.2-.5.4-.7c.1-.1.3-.1.5-.2h.2 19.1zm12.5 0h17.6 4.1 1.1c.4 0 .6.2.8.4.1.1.1.2.1.3s.1.3.1.4v.5.7.7.7.7.7c-.1.4-.3.6-.5.8s-.4.3-.7.3h-.9-3.3-8.5-.9-1c-.3 0-.6 0-.9.1-.3 0-.5.1-.6.2-.2.2-.4.4-.4.7s-.1.6-.1 1v2.7 1.4c.1.3.1.5.2.6a1.38 1.38 0 0 0 .3.4c.2.1.4.2.7.2h.8 2.5 8.1.8 1c.3 0 .6 0 .9.1s.5.1.6.2c.2.1.3.3.3.6s.1.6.1.9v1 .9.7c0 .3 0 .4-.1.6-.1.3-.2.5-.4.6s-.4.2-.6.2h-.9-1-.8-9.2-1.1-1c-.3 0-.5.1-.8.3-.2.1-.4.4-.4.6v.5.5 1.8 2.6c0 .4 0 .7.1 1 0 .3.2.5.4.7.1.1.2.1.4.2.1 0 .3.1.4.1h.5.5.5 2 8.9 2.5.7c.2 0 .4 0 .6.1.3.1.4.3.5.5s.1.3.1.6v.7 2.2 1.1c0 .4-.2.6-.4.7-.2.2-.4.2-.7.2h-1-3.5-14-3.7c-.4 0-.8 0-1.2-.1s-.6-.2-.7-.4-.2-.4-.2-.7v-.9V29 16.1 5.8 2.9v-.8c0-.2.1-.5.2-.7s.4-.4.7-.5h.2c.1 0 .2 0 .2-.1zm70.7 32.6c.1.2.1.4 0 .5-.1.2-.2.3-.3.3-.2.2-.4.2-.8.2h-1-2.5c-.5 0-.9 0-1.3-.1s-.7-.2-.8-.5c-.3-.4-.4-.9-.4-1.5s-.1-1.2-.2-1.7v-.4-.3c-.1-.4-.1-.8-.1-1.2s0-.8-.1-1.2v-.4c-.1-.3-.1-.7-.2-1.1s-.1-.7-.2-1.1c-.3-.7-.5-1.4-.9-1.9s-.8-1-1.5-1.3c-.2-.1-.3-.1-.5-.1s-.3-.1-.5-.1c-.6-.2-1.2-.3-2-.3h-2.2-3.9c-.3.1-.5.1-.7.1s-.3.1-.5.3c-.3.3-.4.8-.3 1.5s0 1.3 0 1.8v6 .8.8.7c0 .2 0 .4-.1.5a.9.9 0 0 1-.6.6c-.2.1-.3.1-.6.1h-.7-2.1-1.6c-.6 0-1-.1-1.3-.3s-.4-.4-.4-.9V32 3.4 2.3c0-.4.1-.7.2-.9s.4-.3.7-.5h.2.2 16 1.4c.4 0 .9.1 1.3.2a.9.9 0 0 0 .5.1.9.9 0 0 1 .5.1c.2.1.4.1.7.2l.7.2c.8.3 1.5.8 2.2 1.3s1.2 1.1 1.6 1.7c.1.2.2.3.3.5s.2.3.3.5c.3.4.4.9.6 1.4l.4 1.6v.4c0 .1 0 .3.1.4v.4c.1.3.1.6 0 .9s-.1.7-.1.9c-.1.3-.1.5-.1.7s0 .4-.1.6l-.5 1.3-.6 1.2c-.1.1-.1.2-.2.3s-.2.2-.2.3c-.1.1-.2.3-.3.4s-.2.2-.4.3c-.2.2-.4.3-.6.5s-.4.3-.6.5c-.1.1-.3.2-.4.3a1.38 1.38 0 0 0-.3.4c-.1.2 0 .3.1.5l.3.3c.3.3.6.5.9.8s.6.5.8.9c.4.5.7 1.1.9 1.6s.4 1.2.6 1.9c.1.3.1.6.1.9s.1.6.1.9v.5.5.4.4.4.4c.1.3.1.6.1 1s0 .7.1 1l.1.8c.1.3.1.6.2.8s.5.6.5.9zm-7.8-21.3c.1-.3.1-.8 0-1.3s-.1-.9-.2-1.1c-.1-.1-.1-.2-.1-.3s0-.2-.1-.3a3.62 3.62 0 0 0-2.1-2.1c-.5-.3-1.1-.4-1.8-.4h-2.2-5.3c-.1.1-.1.1-.2.1h-.2c-.4.1-.6.3-.8.5-.2.3-.2.6-.2 1v1.2 4.4 1.1a2.39 2.39 0 0 0 .2.9c.1.2.3.3.6.4s.6.1.9.1h1.1 1 2.8.7c.2 0 .5 0 .7-.1h.6c.3-.1.5-.1.7-.1s.5 0 .7-.1l1.4-.6a2.41 2.41 0 0 0 1-1c.2-.3.3-.6.4-.9.3-.5.3-.9.4-1.4z"/><path d="M338.8 16.4c.1.2.1.5.1 1s0 .8-.1 1v.6c-.1.3-.1.6-.1 1s0 .7-.1 1c-.1.2-.1.4-.1.7 0 .2-.1.4-.1.7-.2.6-.3 1.1-.4 1.7a9.83 9.83 0 0 1-.5 1.6c-.9 2.2-2.2 4-3.8 5.5s-3.6 2.6-5.9 3.4l-1 .3c-.3.1-.7.1-1 .2-.2.1-.3.1-.5.1h-.5l-1.6.1h-.7c-.4 0-.5 0-.6-.1h-.4-.4-.5c-.3-.1-.5-.1-.7-.1s-.5-.1-.7-.1c-.3-.1-.5-.1-.8-.2-.3 0-.5-.1-.8-.2s-.7-.3-1.1-.4-.7-.3-1.1-.4c-1.9-.8-3.5-1.9-4.8-3.3s-2.4-3-3.2-4.9c-.2-.4-.3-.9-.5-1.4-.1-.5-.3-1-.4-1.5-.1-.2-.1-.3-.1-.4v-.4c-.1-.2-.1-.4-.1-.7s-.1-.5-.1-.7v-.4c0-.1 0-.3-.1-.4v-.6-.6c-.1-.2-.1-.4-.1-.7s0-.6.1-.7v-.4-.4-.3c.1-.2.1-.4.1-.6s0-.4.1-.6.1-.3.1-.5 0-.3.1-.5c.2-.5.3-1.1.4-1.6s.2-1 .4-1.5c.3-.5.5-1.1.7-1.6s.5-1 .8-1.5c.9-1.5 2-2.8 3.3-3.8 1.2-1 2.7-1.9 4.5-2.6.4-.2.8-.3 1.3-.4l1.3-.3c.2-.1.3-.1.4-.1h.4l1.4-.1h.3.3c2.2-.1 4.2.2 5.8.7s3.1 1.2 4.4 2.1l1.3 1c.5.4.8.7 1.1 1.1l.5.5c.2.2.3.3.4.5l1 1.5c.3.5.6 1.1.9 1.7.2.4.4.9.5 1.3s.3.8.4 1.3c.1.3.2.6.2 1s.1.7.2 1c.1.2.1.4.1.6s0 .4.1.6.1.4.1.6v.5.1zm-7.3 2c.1-.2.1-.4.1-.7s0-.5-.1-.7v-.8-.4c0-.2 0-.2-.1-.4-.1-.3-.1-.5-.1-.7s-.1-.5-.1-.7 0-.3-.1-.5l-.3-1c-.1-.3-.2-.7-.4-1-.7-1.6-1.7-2.9-3-3.9s-3.1-1.5-5.4-1.5h-.2-.2-.4c-.1 0-.3 0-.4.1-.3.1-.7.1-1 .2l-.9.3c-1.3.6-2.4 1.4-3.1 2.4-.8 1-1.4 2.2-1.9 3.6-.1.3-.2.7-.2 1s-.1.7-.2 1v.4.4a.45.45 0 0 0 0 .5c.1.2 0 .4 0 .5-.1.2-.1.4-.1.9s0 .7.1.9v.5.4.4.4.4c.1.3.2.7.2 1a1.93 1.93 0 0 0 .3 1c.3 1 .8 1.9 1.3 2.8s1.1 1.6 1.9 2.1c.2.2.3.3.5.4s.4.2.5.3c.3.2.7.4 1.1.5s.8.3 1.2.4c.2.1.3.1.4.1h.4c.2.1.4.1.6.1h.6.4.4c.1 0 .3 0 .4-.1.3-.1.6-.1.9-.2s.6-.1.9-.3c1.4-.5 2.4-1.2 3.2-2.1.8-.8 1.4-1.9 2-3.3.2-.3.3-.7.4-1.1l.3-1.2.1-1.1v-.4-.4-.5zm44-2c.1.2.1.5.1 1s0 .8-.1 1v.6c-.1.3-.1.6-.1 1s0 .7-.1 1c-.1.2-.1.4-.1.7 0 .2-.1.4-.1.7-.2.6-.3 1.1-.4 1.7a9.83 9.83 0 0 1-.5 1.6c-.9 2.2-2.2 4-3.8 5.5s-3.6 2.6-5.9 3.4l-1 .3c-.3.1-.7.1-1 .2-.2.1-.3.1-.5.1h-.5l-1.6.1h-.7c-.4 0-.5 0-.6-.1h-.4-.4-.8c-.3-.1-.5-.1-.7-.1s-.5-.1-.7-.1c-.3-.1-.5-.1-.8-.2-.3 0-.5-.1-.8-.2s-.7-.3-1.1-.4-.7-.3-1.1-.4c-1.9-.8-3.5-1.9-4.8-3.3s-2.4-3-3.2-4.9c-.2-.4-.3-.9-.5-1.4-.1-.5-.3-1-.4-1.5-.1-.2-.1-.3-.1-.4v-.4c-.1-.2-.1-.4-.1-.7s-.1-.5-.1-.7v-.4c0-.1 0-.3-.1-.4v-.6-.6c-.1-.2-.1-.4-.1-.7s0-.6.1-.7v-.4-.4-.3c.1-.2.1-.4.1-.6s0-.4.1-.6.1-.3.1-.5 0-.3.1-.5c.2-.5.3-1.1.4-1.6s.2-1 .4-1.5c.3-.5.5-1.1.7-1.6s.5-1 .8-1.5c.9-1.5 2-2.8 3.3-3.8 1.2-1 2.7-1.9 4.5-2.6.4-.2.8-.3 1.3-.4l1.3-.3c.2-.1.3-.1.4-.1h.4l1.4-.1h.3.3c2.2-.1 4.2.2 5.8.7s3.1 1.2 4.4 2.1l1.3 1c.5.4.8.7 1.1 1.1l.5.5c.2.2.3.3.4.5l1 1.5c.3.5.6 1.1.9 1.7.2.4.4.9.5 1.3s.3.8.4 1.3c.1.3.2.6.2 1s.1.7.2 1c.1.2.1.4.1.6s0 .4.1.6.1.4.1.6v.5.1zm-7.4 2c.1-.2.1-.4.1-.7s0-.5-.1-.7v-.8-.4c0-.2 0-.2-.1-.4-.1-.3-.1-.5-.1-.7s-.1-.5-.1-.7 0-.3-.1-.5l-.3-1c-.1-.3-.2-.7-.4-1-.7-1.6-1.7-2.9-3-3.9s-3.1-1.5-5.4-1.5h-.2-.2-.4c-.1 0-.3 0-.4.1-.3.1-.7.1-1 .2l-.9.3c-1.3.6-2.4 1.4-3.1 2.4-.8 1-1.4 2.2-1.9 3.6-.1.3-.2.7-.2 1s-.1.7-.2 1v.4.4a.45.45 0 0 0 0 .5c.1.2 0 .4 0 .5-.1.2-.1.4-.1.9s0 .7.1.9v.5.4.4.4.4c.1.3.2.7.2 1a1.93 1.93 0 0 0 .3 1c.3 1 .8 1.9 1.3 2.8s1.1 1.6 1.9 2.1c.2.2.3.3.5.4s.4.2.5.3c.3.2.7.4 1.1.5s.8.3 1.2.4c.2.1.3.1.4.1h.4c.2.1.4.1.6.1h.6.4.4c.1 0 .3 0 .4-.1.3-.1.6-.1.9-.2s.6-.1.9-.3c1.4-.5 2.4-1.2 3.2-2.1.8-.8 1.4-1.9 2-3.3.2-.3.3-.7.4-1.1l.3-1.2.1-1.1v-.4-.4-.5zM381.9.9h6.2 1.5c.5 0 .9.1 1.2.3.2.2.4.4.5.7l.3.9c.2.5.4 1 .5 1.5.2.5.4 1 .5 1.6l2.1 6 2.1 6.1c.3.6.5 1.3.7 1.9.2.7.4 1.3.7 1.9.1.2.1.3.2.5a1.38 1.38 0 0 0 .3.4c.1 0 .1.1.2.1h.2c.3-.1.4-.3.5-.6l.3-.8c.3-.7.5-1.4.7-2.1l.7-2.1 1.9-5.8 1.9-5.8c.2-.5.3-1 .5-1.5s.3-1 .5-1.5l.3-.8c.1-.3.3-.5.5-.6.2-.2.4-.2.7-.2h.9 3.1 3.3.9c.3 0 .5.1.7.2.3.2.5.5.5 1.1v1.6V11v17.5 4.1 1c0 .3-.1.6-.3.7-.2.2-.4.2-.7.3h-.9-2.3-1.3c-.3-.1-.5-.1-.6-.1s-.3-.1-.5-.3c-.1-.2-.2-.4-.2-.6v-.8-2.4V18c0-.4-.1-.9-.1-1.2v-1.2-.8c0-.3 0-.5-.1-.8-.1-.2-.1-.5-.1-.7 0-.3-.1-.4-.3-.5h-.2l-.1.1c-.1.1-.2.3-.3.4-.1.2-.1.3-.2.5-.2.5-.4 1-.5 1.5s-.4 1-.5 1.5c-.1.2-.1.4-.2.6s-.1.4-.2.6c-.2.4-.3.8-.4 1.2s-.3.8-.4 1.2c-.1.1-.1.2-.1.3s0 .2-.1.3l-.3.9c-.1.3-.2.6-.4.9l-.3.9-.3.9c-.4.9-.7 1.8-1 2.8l-.9 2.8c-.1.1-.1.2-.1.3s0 .2-.1.3c-.2.3-.3.7-.4 1.1s-.2.7-.4 1.1l-.3.6c-.1.2-.2.3-.4.5-.2.1-.3.2-.5.2s-.3.1-.6.1h-1.1-.8-.9-.8c-.2 0-.4-.1-.6-.2-.3-.2-.4-.3-.5-.5s-.2-.4-.3-.7c-.2-.4-.3-.8-.4-1.2s-.2-.8-.4-1.2l-.1-.4c-.2-.4-.3-.8-.4-1.2s-.3-.8-.4-1.2c0-.1-.1-.2-.1-.3s0-.2-.1-.3c-.2-.3-.3-.6-.4-.9l-.3-.9c0-.1-.1-.1-.1-.2s0-.2-.1-.2l-.3-.9c-.1-.3-.2-.6-.4-.9-.3-.6-.5-1.3-.7-2s-.5-1.4-.7-2l-.8-2.4c-.3-.8-.5-1.6-.9-2.4-.2-.4-.3-.8-.5-1.1l-.2-.2c-.1-.1-.1 0-.2 0-.2.1-.2.3-.2.5s0 .4-.1.7c-.1.2-.1.4-.1.7v.7 1c0 .3 0 .7-.1 1v12.5 2.3.8c0 .3-.1.5-.2.6-.1.2-.4.4-.7.4-.2.1-.5.1-.7.1h-.8-2.4-.9c-.3 0-.5-.1-.7-.3s-.3-.4-.3-.7v-1-4.1-17.6-6.6-.7-.8-.7c0-.2.1-.4.1-.5.1-.2.4-.4.8-.5h.2.1z"/></g><path d="M96.6 79.9c0 .1.1.3.2.5s.1.4.2.6.1.4 0 .6-.1.3-.3.4c-.3.2-.7.2-1.3.2H94h-2.2-.7c-.2 0-.4 0-.6-.1-.3-.1-.6-.3-.8-.6s-.3-.5-.4-.8l-.3-.8c-.2-.5-.3-1-.5-1.5s-.4-1-.5-1.5l-.3-.8-.3-.6c-.1-.2-.2-.4-.4-.5s-.4-.2-.8-.3h-.4-.4H78h-1.7c-.6 0-1.1.1-1.4.4-.3.2-.4.4-.5.8l-.3.9c-.3.5-.5 1.1-.6 1.7l-.6 1.7c-.1.3-.2.6-.4 1-.1.3-.3.6-.5.8-.2.1-.4.2-.7.3-.3 0-.6.1-1 .1h-1.1-1-1.5c-.6 0-1-.1-1.2-.2s-.2-.2-.3-.4 0-.4 0-.6.1-.4.2-.6.1-.3.2-.5l.9-2.2.8-2.2.3-.8.3-.8.8-2 .8-2c.3-.6.5-1.2.7-1.9l.7-1.9 2-5.2 2-5.2c.1-.2.1-.3.1-.4s.1-.3.1-.4l.8-2 .8-2c.2-.3.3-.7.4-1.1s.3-.7.6-.9c.2-.1.4-.2.6-.2h.2.2 4.1 1.1c.4 0 .7.1.9.2.3.2.6.5.7.8.1.4.2.7.4 1.1l.6 1.6.6 1.6c.1.2.1.4.2.6s.1.4.2.6c.3.6.5 1.2.7 1.9l.7 1.9 1.8 4.8c.5 1.6 1.2 3.2 1.8 4.8.1.1.1.2.1.4 0 .1.1.2.1.4l.6 1.5.6 1.5c.1.3.2.5.3.7s.1.5.2.7l1.1 3c.3 1 .7 2 1.1 3 .1.1.1.2.1.3s-.2-.5-.1-.4zM84.4 69.1c.4-.2.6-.4.6-.8s-.1-.7-.3-1.1c-.1-.1-.1-.2-.1-.4 0-.1 0-.2-.1-.4l-1.1-3.3c-.3-1.1-.7-2.2-1.2-3.3-.1-.2-.1-.4-.2-.6s-.1-.5-.2-.7-.2-.4-.3-.5c-.1-.2-.3-.2-.5-.2-.1.2-.2.2-.2.2s-.1.1-.2.1c-.3.3-.4.7-.5 1.1s-.2.9-.4 1.3c-.4.9-.7 1.8-1 2.7l-1 2.7-.3.9-.3 1a1.1 1.1 0 0 0 0 .8c.2.2.4.3.8.4s.7 0 1.1 0h3.6.9c.3 0 .6.1.9.1zm13.5-11.3h3.4 1c.3 0 .6.1.8.2.3.2.6.6.7 1.2s.3 1.1.4 1.5l1 3.2 1 3.2c.3.8.5 1.5.7 2.3s.5 1.5.8 2.3l.3.9c.1.3.3.5.7.5l.1-.1.1-.1c.1-.2.2-.3.2-.5s.1-.3.2-.5c.2-.3.3-.7.4-1.1l.3-1.1 1.2-4 1.2-4c.2-.4.3-.8.4-1.2l.3-1.1c.1-.3.1-.5.2-.8s.2-.5.4-.6c.1-.1.3-.2.6-.3.2-.1.4-.1.6-.1h.6 2.3 1c.3 0 .5.1.7.3s.3.4.2.7-.1.5-.2.7c-.2.4-.3.9-.5 1.4s-.3 1-.5 1.4c-.1.2-.2.4-.2.6s-.1.4-.2.6c-.2.3-.3.7-.4 1s-.2.7-.4 1c0 .1-.1.2-.1.3s-.1.2-.1.3l-.5 1.4c-.1.5-.3 1-.4 1.4l-1 2.9-1 2.9c-.2.4-.3.9-.4 1.3s-.3.9-.4 1.3c-.1.2-.1.3-.1.4s-.1.2-.1.4c-.1.3-.2.7-.4 1.1s-.2.7-.4 1.1c-.2.3-.3.7-.4 1s-.4.5-.7.6-.5.1-.8.1h-.8-3.1-1c-.3 0-.6-.1-.9-.2-.2-.2-.4-.4-.5-.6s-.2-.5-.3-.8c-.2-.4-.3-.8-.4-1.2s-.3-.8-.4-1.2c-.1-.1-.1-.2-.1-.4s-.1-.2-.1-.4c-.2-.4-.3-.8-.4-1.2s-.3-.8-.4-1.2c-.1-.2-.1-.3-.1-.4s-.1-.3-.1-.4l-.3-.9-.3-.9c-.1-.1-.1-.2-.1-.3s0-.2-.1-.3l-.3-.8-.3-.9c-.3-.7-.5-1.5-.8-2.2s-.5-1.5-.8-2.3l-.9-2.6-.8-2.6-.2-.9c0-.1-.1-.2-.1-.4 0-.1 0-.3.1-.4.1-.2.3-.4.7-.5h.2zm47.5 22.4c.1.3.1.7.1 1s-.1.6-.5.7c-.2.1-.4.1-.7.1h-.8-2.5-.8c-.2 0-.5-.1-.6-.2-.2-.1-.4-.3-.5-.5s-.3-.4-.4-.6l-.2-.2c-.1 0-.2-.1-.4 0s-.3.1-.4.2a.76.76 0 0 1-.4.2c-.2.1-.3.2-.5.3l-.6.3c-.4.2-.8.3-1.3.4-.4.1-.9.2-1.4.4-.2.1-.4.1-.6.1s-.4 0-.6.1h-.3-.3-.5c-.3.1-.6.1-.9 0h-.4c-.2-.1-.4-.1-.6-.1s-.4 0-.6-.1c-.3-.1-.6-.1-.9-.2-.3 0-.5-.1-.8-.3-.9-.3-1.7-.8-2.3-1.3s-1.2-1.3-1.5-2.2c-.1-.2-.2-.5-.3-.7-.1-.3-.1-.5-.2-.8-.1-.2-.1-.3-.1-.5v-.5c0-.1-.1-.3-.1-.6v-.6c.1-.3.1-.6.1-.8.1-.3.2-.7.3-1.1s.2-.7.4-1c.5-.9 1.1-1.6 1.8-2.1s1.6-.9 2.6-1.2c.4-.2.8-.3 1.3-.3s.9-.1 1.3-.2c.3-.1.5-.1.8-.1s.6-.1.8-.1c.2-.1.4-.1.7-.1.2 0 .5 0 .7-.1s.4-.1.7-.1.5 0 .7-.1c.7-.2 1.3-.3 1.8-.4s1-.4 1.5-.8c.3-.3.5-.6.6-.9V65v-.2-.3-.3c0-.1-.1-.3-.1-.4s0-.2-.1-.3c-.3-.9-1-1.6-2-1.9-.3-.1-.6-.2-1-.2s-.8-.1-1.2 0-.8.1-1.2.1-.7.1-1 .2c-.2.1-.4.2-.5.3-.2.1-.3.2-.5.4-.2.1-.3.3-.5.5s-.3.4-.4.6c-.2.3-.3.6-.4.9s-.3.5-.7.6c-.3.1-.5.1-.8.1h-.8-1.8-.5-.4-.4-.2c-.1 0-.2 0-.2-.1-.3-.1-.4-.3-.5-.6v-.5c0-.2.1-.3.1-.4l.3-1c.1-.3.2-.6.4-.8.1-.2.2-.3.3-.5s.2-.3.3-.5c.3-.3.6-.7.9-1 .1 0 .2-.1.3-.2.2-.1.3-.2.4-.3s.3-.2.4-.3c.5-.3 1.1-.6 1.7-.8l1.8-.6c.4-.1.8-.2 1.2-.2s.8-.1 1.2-.2h.6.5l3.7.1c1.2.1 2.2.4 3.2.7s1.8.8 2.5 1.4 1.2 1.3 1.6 2.2c.2.5.3 1.1.4 1.8s0 1.4 0 2.1v10.5 1.8c0 .6.1 1.2.2 1.7v.3c-.1.3 0 .4 0 .5zm-6.9-7.2v-.5-.5c-.1-.2-.1-.4-.1-.5a.76.76 0 0 0-.2-.4c-.2-.1-.4-.2-.7-.2-.1 0-.2.1-.3.1s-.2 0-.3.1c-.2.1-.5.1-.7.1-.3 0-.5.1-.8.1h-.4c-.4.1-.8.2-1.2.2s-.8.1-1.2.2c-.3.1-.5.1-.7.2-.2 0-.4.1-.7.2-.7.3-1.2.7-1.7 1.3s-.6 1.4-.5 2.4c.1.5.2 1 .5 1.3.2.3.5.6 1 .8s.9.4 1.4.4c.5.1 1.1.1 1.6.1a4.53 4.53 0 0 0 1.6-.3c.8-.3 1.5-.7 1.9-1.2.5-.5.8-1.2 1.1-2.1.1-.2.1-.4.1-.7 0-.2.1-.5.1-.7V73zm18.4-24.2c.2.3.3.6.3 1.1v1.5 1.3c0 .5-.1.7-.3.9s-.4.3-.7.3h-1-2.6-.9c-.3 0-.5-.1-.7-.3-.1-.1-.2-.3-.3-.5s-.1-.6-.1-.9v-1-.9-.7c0-.2.1-.4.2-.5s.1-.2.3-.3l.4-.2h.2.2 3.5c.3 0 .6 0 .9.1.2-.1.4 0 .6.1zm.3 30.7v1.6c0 .4-.3.7-.9.9-.2.1-.4.1-.6.1h-.7-2.7-.8c-.3 0-.5-.1-.6-.3-.2-.2-.3-.5-.3-.8v-1.1-20-.9c0-.3.1-.6.2-.8.2-.2.5-.4.8-.4h.3.3 2.4.6.6.4c.2.1.4.1.5.1.2 0 .3.1.4.3s.2.4.2.7v.9 19.7zm6.8-31h3.5c.3 0 .6 0 .9.1.3 0 .5.1.7.3s.3.5.3.9v1.1V55v16.9 7.2 1.3c0 .5-.1.9-.2 1.1-.2.3-.4.4-.9.5-.2.1-.4.1-.6 0s-.5 0-.7 0h-2.3-.9c-.3 0-.5-.1-.7-.3s-.3-.4-.3-.7v-1-4.2-17.7-6.4-1.5c0-.6.1-1 .2-1.2.1-.1.1-.2.3-.3l.4-.2h.2.1zm32.7 31.7c.1.3.1.7.1 1s-.1.6-.5.7c-.2.1-.4.1-.7.1h-.8-2.5-.8c-.2 0-.5-.1-.6-.2-.2-.1-.4-.3-.5-.5s-.3-.4-.4-.6l-.2-.2c-.1 0-.2-.1-.4 0s-.3.1-.4.2a.76.76 0 0 1-.4.2c-.2.1-.3.2-.5.3l-.6.3c-.4.2-.8.3-1.3.4-.4.1-.9.2-1.4.4-.2.1-.4.1-.6.1s-.4 0-.6.1h-.3-.3-.5c-.3.1-.6.1-.9 0h-.6c-.2-.1-.4-.1-.6-.1s-.4 0-.6-.1c-.3-.1-.6-.1-.9-.2-.3 0-.5-.1-.8-.3-.9-.3-1.7-.8-2.3-1.3s-1.2-1.3-1.5-2.2c-.1-.2-.2-.5-.3-.7-.1-.3-.1-.5-.2-.8-.1-.2-.1-.3-.1-.5v-.5c0-.1-.1-.3-.1-.6v-.6c.1-.3.1-.6.1-.8.1-.3.2-.7.3-1.1s.2-.7.4-1c.5-.9 1.1-1.6 1.8-2.1s1.6-.9 2.6-1.2c.4-.2.8-.3 1.3-.3s.9-.1 1.3-.2c.3-.1.5-.1.8-.1s.6-.1.8-.1c.2-.1.4-.1.7-.1.2 0 .5 0 .7-.1s.4-.1.7-.1.5 0 .7-.1c.7-.2 1.3-.3 1.8-.4s1-.4 1.5-.8c.3-.3.5-.6.6-.9V65v-.2-.3-.3c0-.1-.1-.3-.1-.4s0-.2-.1-.3c-.3-.9-1-1.6-2-1.9-.3-.1-.6-.2-1-.2s-.8-.1-1.2 0-.8.1-1.2.1-.7.1-1 .2c-.2.1-.4.2-.5.3-.2.1-.3.2-.5.4-.2.1-.3.3-.5.5s-.3.4-.4.6c-.2.3-.3.6-.4.9s-.3.5-.7.6c-.3.1-.5.1-.8.1h-.8-1.8-.5-.4-.4-.2c-.1 0-.2 0-.2-.1-.3-.1-.4-.3-.5-.6v-.5c0-.2.1-.3.1-.4l.3-1c.1-.3.2-.6.4-.8.1-.2.2-.3.3-.5s.2-.3.3-.5c.3-.3.6-.7.9-1 .1 0 .2-.1.3-.2a1.38 1.38 0 0 0 .4-.3c.1-.1.3-.2.4-.3.5-.3 1.1-.6 1.7-.8l1.8-.6c.4-.1.8-.2 1.2-.2s.8-.1 1.2-.2h.6.5l3.7.1c1.2.1 2.2.4 3.2.7s1.8.8 2.5 1.4 1.2 1.3 1.6 2.2c.2.5.3 1.1.4 1.8s0 1.4 0 2.1v10.5 1.8c0 .6.1 1.2.2 1.7v.3c.2.3.2.4.2.5zm-6.9-7.2v-.5-.5c-.1-.2-.1-.4-.1-.5a.76.76 0 0 0-.2-.4c-.2-.1-.4-.2-.7-.2-.1 0-.2.1-.3.1s-.2 0-.3.1c-.2.1-.5.1-.7.1-.3 0-.5.1-.8.1h-.4c-.4.1-.8.2-1.2.2s-.8.1-1.2.2c-.3.1-.5.1-.7.2-.2 0-.4.1-.7.2-.7.3-1.2.7-1.7 1.3s-.6 1.4-.5 2.4c.1.5.2 1 .5 1.3.2.3.5.6 1 .8s.9.4 1.4.4c.5.1 1.1.1 1.6.1a4.53 4.53 0 0 0 1.6-.3c.8-.3 1.5-.7 1.9-1.2.5-.5.8-1.2 1.1-2.1.1-.2.1-.4.1-.7 0-.2.1-.5.1-.7V73zm36.4-4.3c.1.2.1.5.1 1v1 .4.4c-.1.3-.1.5-.1.7s0 .5-.1.7c0 .1 0 .3-.1.7l-.3 1.2c-.1.4-.2.8-.4 1.1a18.78 18.78 0 0 1-2.1 3.7c-.8 1-2 1.9-3.3 2.5l-.9.3-1 .3c-.2.1-.4.1-.6.1h-.6-.4c-.2.1-.4.1-.8.1-.3 0-.6-.1-.8-.1h-.3c-.2 0-.3-.1-.5-.1s-.4 0-.6-.1l-1.6-.5c-.5-.2-1-.4-1.4-.7-.2-.1-.4-.3-.5-.4-.2-.1-.3-.3-.5-.4-.1-.1-.2-.1-.3-.2s-.2-.1-.3-.1c-.3-.1-.5 0-.5.2-.2.2-.3.5-.3.8s-.2.5-.4.7c-.2.1-.4.2-.7.2h-.9-2.3-.7c-.2 0-.4 0-.6-.1-.4-.2-.7-.4-.7-.9s-.1-.9-.1-1.4V51v-1.1c0-.4.1-.7.2-.9s.3-.4.7-.4h.2.2 3c.6 0 1.1 0 1.5.1s.7.3.8.7c.1.3.1.7.1 1.2v1.3V57v1c0 .3 0 .6.1.9 0 .2.1.3.1.4s.1.2.2.2c.1.1.1.1.3.1h.3c.2-.1.4-.3.6-.4s.4-.3.6-.4c.4-.3.8-.5 1.3-.7s.9-.4 1.5-.5c.3-.1.5-.1.8-.2.3 0 .5-.1.8-.1.2-.1.5-.1.7-.1h.8.5.3.4c.3.1.7.2 1 .2s.6.1.9.3c1.4.6 2.6 1.4 3.5 2.3s1.7 2.1 2.3 3.5c.2.4.3.8.4 1.2s.2.8.4 1.3c.1.2.1.4.1.6s.1.4.1.7a.9.9 0 0 1 .1.5v.6.3zm-7 4.4c.1-.3.2-.7.3-1.2s.1-1 .1-1.4V69a3.73 3.73 0 0 0-.2-1.2c-.1-.3-.2-.6-.2-.9s-.1-.5-.2-.8c-.4-1.1-1.1-2-1.9-2.8s-2-1.2-3.5-1.2h-.3-.3c-.2.1-.4.1-.6.2s-.4.1-.6.2c-.9.4-1.6 1-2.1 1.7s-.9 1.6-1.2 2.5c-.1.3-.1.5-.2.8 0 .3-.1.5-.1.8v.5.4.4c-.1.3-.1.6 0 1a3.87 3.87 0 0 1 .1.9c.1.3.1.5.1.8s.1.5.2.8c.3.9.6 1.6 1 2.3s1 1.2 1.7 1.6c.5.3 1 .5 1.6.7h.2.3c.1 0 .3.1.5.1h.6c.3-.1.6-.1.9-.2s.5-.1.8-.2c.9-.4 1.6-1 2-1.7l1-2.6zM232 48.5h3.5c.3 0 .6 0 .9.1.3 0 .5.1.7.3s.3.5.3.9v1.1V55v16.9 7.2 1.3c0 .5-.1.9-.2 1.1-.2.3-.4.4-.9.5-.2.1-.4.1-.6 0s-.5 0-.7 0h-2.3-.9c-.3 0-.5-.1-.7-.3s-.3-.4-.3-.7v-1-4.2-17.7-6.4-1.5c0-.6.1-1 .2-1.2.1-.1.1-.2.3-.3l.4-.2h.2c-.1 0 0 0 .1 0zm33.7 21.2a1.1 1.1 0 0 1 0 .8c-.1.3-.2.5-.3.6-.2.1-.4.2-.7.3s-.6.1-1 .1h-1.1-1-11.5-.6c-.2 0-.4 0-.5.1-.3.1-.4.3-.5.4s-.1.2-.2.4a.45.45 0 0 0 0 .5c.1.2.1.4.1.5s.1.4.1.5a11.39 11.39 0 0 0 .9 1.9c.4.5.9.9 1.5 1.3.3.2.5.3.8.3s.5.1.8.2.6.1 1 .1h1.1.4c.3-.1.6-.1.9-.2l.8-.3c.3-.2.7-.4 1.1-.6.4-.3.7-.5.9-.8.2-.2.3-.4.5-.6s.4-.4.6-.4c.3-.2.7-.2 1.2-.2h1.3.6c.2 0 .4 0 .5.1h.5c.3.1.5.1.7.2.1.1.2.2.2.4s0 .4-.1.6c-.2.4-.3.8-.5 1.2s-.4.7-.7 1c-.7 1-1.5 1.9-2.4 2.5s-2 1.2-3.3 1.6c-.3.1-.7.2-1 .2s-.7.1-1.1.2h-.4-.4-.5c-.2.1-.3.1-.5.1s-.4 0-.5-.1h-.7-.6c-.2-.1-.3-.1-.5-.1s-.4 0-.5-.1c-.3-.1-.7-.1-1-.2s-.7-.2-.9-.4c-.3-.1-.7-.2-1-.4s-.6-.2-.8-.4c-1-.6-1.9-1.4-2.7-2.2s-1.4-1.8-1.9-2.9c-.2-.3-.3-.7-.4-1.1s-.2-.7-.4-1.1v-.4-.4c-.1-.4-.2-.8-.2-1.2s-.1-.9-.1-1.3v-.5-.5-.6l.1-1.1.3-1.6c.1-.5.2-1 .4-1.4 1.4-3.3 3.6-5.6 6.9-6.9.4-.2.9-.3 1.3-.4l1.4-.3h.7.7c1.6 0 3 .1 4.1.5s2.2.9 3.1 1.5c.3.2.6.4.8.6.3.2.5.5.8.7a.78.78 0 0 0 .4.4c.3.3.5.7.7 1.1s.5.7.7 1.1c.2.3.3.6.4.9s.2.6.4 1 .3.8.4 1.3l.3 1.3c.1.3.1.5.1.8s0 .6.1.8v.6zm-7.1-2.8c.2-.3.2-.7.1-1.2l-.4-1c-.4-.9-1-1.5-1.7-2s-1.7-.7-3-.7c-.1.1-.2.1-.3 0h-.3c-.2.1-.3.1-.5.1s-.4.1-.5.1c-1.4.4-2.4 1.3-3.1 2.6-.1.1-.1.3-.2.5s-.1.4-.2.6 0 .4 0 .6.1.3.3.5c.3.2.6.2 1 .2h1.3l5.2.1h1.4c.4 0 .8-.1.9-.4z" fill="#fff"/></svg>