<svg xmlns="http://www.w3.org/2000/svg" xmlns:xlink="http://www.w3.org/1999/xlink" width="425.8" height="84.1" overflow="visible" xmlns:v="https://vecta.io/nano"><g fill="#f7dd15"><path d="M60.5 50.9c1.3.4 1.9 1.3 2 2.6s.1 2.8.1 4.4v3.3l-.5 2c-.2.5-.7.9-1.4 1-.7.2-1.5.3-2.4.3s-1.7-.1-2.5-.1-1.6.1-2.3.3-1.2.6-1.6 1.3c-.2.3-.3.9-.5 1.7V69c-.1.4-.1.9-.1 1.5s.1 1.2.1 1.7v6.2 2.4c0 .8-.2 1.4-.6 1.9-.2.3-.5.5-.9.7-.4.1-.7.3-1.1.4h-.6c-.6.2-1.4.2-2.3.1s-1.6-.1-2.3-.1l-2.4.1c-.8.1-1.6 0-2.3-.1s-1.4-.2-1.9-.5-1-.6-1.2-1.2c-.2-.4-.2-.9-.2-1.5v-1.9V73c0-.4 0-.9.1-1.4 0-.6 0-1-.1-1.4v-2.5c-.2-.6-.3-1.2-.5-1.6s-.4-.8-.8-1.1c-.7-.5-1.8-.7-3.3-.7l-3.9.1H9.3l-2.2.1c-.8.1-1.7 0-2.5 0s-1.6 0-2.3-.1-1.1-.4-1.4-.8C.4 63 .2 62.1.2 61v-1.4C0 59 0 58.4 0 57.7s.1-1.3.1-1.9v-3.3c0-1.2.1-2.2.4-3 .2-.6.4-1.1.7-1.6a9.13 9.13 0 0 1 .8-1.3l2.4-3.1 2.4-3.1c2.1-3 4.2-6 6.5-8.9s4.5-5.9 6.6-8.9c.4-.6.9-1.2 1.4-1.8s1-1.2 1.4-1.8c1.4-2 2.9-3.9 4.4-5.8s2.9-3.9 4.4-5.8c.4-.6.8-1.2 1.3-1.8s1-1.2 1.4-1.8c.2-.4.5-.8.7-1.1.2-.4.6-.7 1-1 .3-.2.6-.3.9-.5s.6-.3 1-.4c.2-.1.4-.1.7-.1s.5 0 .7-.2H47c.9 0 1.7 0 2.4.1s1.3.4 1.7 1c.3.5.5 1.1.5 1.8s.1 1.5.1 2.4v38.9 2c0 .7.1 1.4.2 1.9.2 1 .9 1.7 1.9 1.9 1 .3 2.1.4 3.5.2 1.1-.2 2.3-.1 3.2.2zm-24.9-5.7c.1-.4.1-.9.1-1.4 0-.6-.1-1-.1-1.4v-10c0-.4 0-.8.1-1.2s0-.8-.1-1.2c-.2-.5-.2-1-.1-1.5s.1-1-.1-1.5c-.2-.6-.3-1.2-.3-1.7s-.5-.8-1.3-.9c-.2.2-.3.3-.5.3a.55.55 0 0 0-.5.3c-.4.3-.8.8-1.1 1.3-.4.6-.7 1-1.1 1.4-.6.9-1.1 1.7-1.7 2.4s-1.2 1.5-1.9 2.4c-.2.4-.5.8-.8 1.2s-.6.8-1 1.2l-6.5 8.6c-.3.4-.6.8-.9 1.3s-.6 1-1 1.4c-.2.3-.4.6-.7.9s-.5.6-.7 1-.2.8-.1 1.3a1.22 1.22 0 0 0 .6.9c.5.4 1.2.6 2.1.6h2.6 7c.6 0 1.2 0 1.8.1s1.2 0 1.7-.1h1.2c.6-.2 1.1-.3 1.5-.4a1.59 1.59 0 0 0 1-.8c.3-.4.5-.9.6-1.4s.1-1.1.1-1.7v-1.4zM76.4.7h12.2 2.9 1c.3 0 .5.1.7.3.1.1.2.3.3.5s.1.6.1.9v1 .9.6c0 .2 0 .4-.1.5-.2.4-.4.6-.8.6s-.8.1-1.3.1h-3.6-5.1-1.3c-.4 0-.8.1-1.1.3s-.4.4-.5.6-.2.5-.2.8-.1.6-.1.9-.1.6-.1.8c-.1.3-.1.5-.1.8s-.1.5-.1.8v.5c-.1.2-.1.3-.1.5s0 .4.1.5c0 .1.1.1.1.1l.1.1c.3 0 .5 0 .7-.1s.4-.2.5-.3c.2-.2.4-.3.7-.4s.5-.2.7-.3c.4-.2.8-.3 1.3-.4s1.1-.1 1.6-.2h1.7l1.4.3c.3.1.7.3 1.1.4s.7.3 1 .5c1.9 1.1 3.4 2.7 4.3 4.8.2.4.3.8.4 1.2l.3 1.2c.1.4.2.8.2 1.4.1.5.1 1.1.1 1.6s0 1.1-.1 1.6l-.3 1.3c-.2.5-.4 1-.5 1.5s-.4.9-.6 1.4l-.6.9c-.2.3-.4.5-.6.8l-.1.1s-.1 0-.1.1c-.1.2-.3.3-.4.4l-.4.4-.1.1-.1.1c-.2.1-.3.3-.4.4l-.4.4a13.53 13.53 0 0 1-3.4 1.7c-.3.1-.5.2-.8.2s-.6.1-.9.2-.5.1-.8.1-.6 0-.9.1h-.4-.4-.3c-.2 0-.3-.1-.5-.1h-.5c-.3-.1-.7-.1-1.1-.2-.4 0-.7-.1-1.1-.2l-2.1-.7c-.7-.3-1.3-.5-1.8-.9-.2-.1-.4-.3-.5-.4-.2-.1-.4-.3-.5-.4l-.3-.3c-.2-.1-.3-.2-.4-.3s-.2-.3-.3-.4c-.1-.2-.3-.3-.4-.4a1.38 1.38 0 0 1-.3-.4c-.3-.4-.6-.9-.8-1.4l-.6-1.6c-.1-.3-.1-.6-.2-1.1s-.1-.9.1-1.1.4-.4.7-.4.7-.1 1.1-.1h2.5.8c.3 0 .5 0 .7.1.3.2.5.4.6.7s.2.6.4.9c.1.3.3.5.4.7s.3.4.4.6l.3.3c.1.1.3.2.4.3.2.2.4.4.7.5.4.3 1.1.4 1.9.6.8.1 1.5.1 2.2-.1.5-.2.9-.3 1.2-.5.4-.2.7-.4 1.1-.7a1.38 1.38 0 0 0 .4-.3c.1-.1.2-.3.3-.4.3-.3.5-.7.7-1.1s.4-.8.5-1.2.1-.7.2-.9V23c.1-.2.1-.5.1-.9s0-.7-.1-.9-.1-.4-.2-.7-.1-.5-.2-.6c-.4-.9-.9-1.7-1.4-2.3-.6-.6-1.4-1-2.4-1.3-.2-.1-.3-.1-.5-.1s-.3 0-.5-.1h-.4c-.2-.1-.4-.1-.7 0-.3 0-.5.1-.6.1h-.4-.4c-.3.1-.7.3-1 .4-.3.2-.6.3-.8.5-.3.2-.5.4-.7.7s-.5.5-.8.6c-.3.2-.8.2-1.3.2h-1.5-.7-.6-.4c-.3-.1-.6-.1-.7-.2-.3-.3-.4-.6-.3-1.2.1-.4.2-.9.2-1.3s.1-.9.2-1.3v-.3-.3c.1-.3.1-.6.2-.9 0-.3.1-.6.2-.9s.1-.5.2-.8.1-.6.2-.8v-.5c0-.2 0-.4.1-.5.2-.7.3-1.4.4-2.1s.2-1.5.4-2.1v-.3-.2c.1-.3.1-.7.2-1s.1-.7.2-1 .1-.7.2-.9c0-.3.2-.5.4-.8-.1-.2.1-.4.4-.4h.2c.1 0 .1 0 .2-.1z"/><use xlink:href="#B"/><use xlink:href="#B" x="26.2"/></g><g fill="#fff"><path d="M73.6 47.7h6.2 1.5c.5 0 .9.1 1.2.3.2.2.4.4.5.7l.3.9c.2.5.4 1 .5 1.5.2.5.4 1 .5 1.6l2.1 6 2.1 6.1c.3.6.5 1.3.7 1.9.2.7.4 1.3.7 1.9.1.2.1.3.2.5s.2.3.3.4c.1 0 .1.1.2.1h.2c.3-.1.4-.3.5-.6l.3-.8c.3-.7.5-1.4.7-2.1L93 64l1.9-5.8 1.9-5.8c.2-.5.3-1 .5-1.5s.3-1 .5-1.5l.3-.8c.1-.3.3-.5.5-.6.2-.2.4-.2.7-.2h.9 3.1 3.3.9c.3 0 .5.1.7.2.3.2.5.5.5 1.1v1.6 7.1 17.5 4.1 1c0 .3-.1.6-.3.7-.2.2-.4.2-.7.3h-.9-2.3-1.3c-.3-.1-.5-.1-.6-.1s-.3-.1-.5-.3c-.1-.2-.2-.4-.2-.6v-.8V77 64.9c0-.4-.1-.9-.1-1.2v-1.2-.8c0-.3 0-.5-.1-.8-.1-.2-.1-.5-.1-.7 0-.3-.1-.4-.3-.5h-.2l-.1.1c-.1.1-.2.3-.3.4-.1.2-.1.3-.2.5-.2.5-.4 1-.5 1.5s-.4 1-.5 1.5c-.1.2-.1.4-.2.6s-.1.4-.2.6c-.2.4-.3.8-.4 1.2s-.3.8-.4 1.2c-.1.1-.1.2-.1.3s0 .2-.1.3l-.3.9c-.1.3-.2.6-.4.9l-.3.9-.3.9c-.4.9-.7 1.8-1 2.8l-.9 2.8c-.1.1-.1.2-.1.3s0 .2-.1.3c-.2.3-.3.7-.4 1.1s-.2.7-.4 1.1l-.3.6c-.1.2-.2.3-.4.5-.2.1-.3.2-.5.2s-.3.1-.6.1H91h-.8-.9-.8c-.2 0-.4-.1-.6-.2-.3-.2-.4-.3-.5-.5s-.2-.4-.3-.7c-.2-.4-.3-.8-.4-1.2s-.2-.8-.4-1.2l-.1-.4c-.2-.4-.3-.8-.4-1.2s-.3-.8-.4-1.2c0-.1-.1-.2-.1-.3s0-.2-.1-.3c-.2-.3-.3-.6-.4-.9l-.3-.9c0-.1-.1-.1-.1-.2s0-.2-.1-.2L84 71c-.1-.3-.2-.6-.4-.9-.3-.6-.5-1.3-.7-2s-.5-1.4-.7-2l-.8-2.4c-.3-.8-.5-1.6-.9-2.4-.2-.4-.3-.8-.5-1.1l-.2-.2c-.1-.1-.1 0-.2 0-.2.1-.2.3-.2.5s0 .4-.1.7c-.1.2-.1.4-.1.7v.7 1c0 .3 0 .7-.1 1v12.5 2.3.8c0 .3-.1.5-.2.6-.1.2-.4.4-.7.4-.2.1-.5.1-.7.1h-.8-2.4-.9c-.3 0-.5-.1-.7-.3s-.3-.4-.3-.7v-1-4.1-17.6V51v-.7-.8-.7c0-.2.1-.4.1-.5.1-.2.4-.4.8-.5h.2c.1 0 0-.1.1-.1zm64.9 20.5c.1.2.1.5.1.8s0 .6-.1.8v.5c-.1.3-.1.5-.1.8s0 .5-.1.8c-.1.2-.1.4-.1.6s-.1.4-.1.6c-.1.3-.2.7-.3 1.1s-.2.7-.4 1c-.7 1.5-1.5 2.7-2.6 3.7-1.1.9-2.4 1.7-3.9 2.4-.4.2-.8.3-1.2.4l-1.2.3c-.2.1-.3.1-.5.1h-.5-.3-.3c-.2 0-.4.1-.8.1-.3 0-.6 0-.8-.1h-.3-.5c-.2 0-.3 0-.5-.1h-.4-.4c-.3-.1-.6-.2-.9-.2l-.9-.3c-.4-.1-.7-.3-1.1-.4a4.67 4.67 0 0 1-1-.5c-1.1-.7-2-1.4-2.8-2.3s-1.4-1.9-2-3.2c-.2-.3-.3-.6-.4-.9l-.3-1c-.1-.2-.1-.3-.1-.4s0-.3-.1-.4c-.1-.3-.1-.5-.1-.8s0-.5-.1-.8v-.4-.4c-.1-.2-.1-.5-.1-.8s.1-.6.1-.8v-.3-.5c0-.2 0-.3.1-.5v-.4c0-.1 0-.3.1-.4l.3-1.2c.1-.4.2-.8.4-1.2.6-1.3 1.2-2.4 2-3.2.8-.9 1.7-1.7 2.9-2.4.3-.2.6-.3 1-.4.3-.1.7-.3 1-.4.4-.2.8-.3 1.3-.3s.9-.2 1.4-.3h.7.7c1.8 0 3.4.2 4.7.6s2.5 1 3.6 1.7c.3.3.7.5 1.1.8s.7.6.9 1c.3.3.5.6.7.9l.6 1c.2.4.4.7.5 1.1s.3.8.4 1.2c.1.3.2.5.2.8s.1.6.2.8v.4.4a.45.45 0 0 1 0 .5c-.1.2.3-.1.3.1zm-6.5 1.7v-.7-.7-.4c-.1-.2-.1-.3-.1-.5v-.5-.3c-.1-.3-.1-.5-.2-.8 0-.3-.1-.5-.2-.8-.3-.8-.8-1.5-1.2-2.1s-1.1-1-1.9-1.4c-.2-.1-.4-.1-.6-.2s-.4-.1-.6-.2c-.3-.1-.5-.1-.8-.1h-.8c-.1.1-.2.1-.3.1h-.3c-.2.1-.4.1-.6.2s-.4.1-.5.2c-.8.3-1.4.8-1.9 1.5-.5.6-.9 1.4-1.2 2.2-.1.3-.2.6-.2 1s-.1.7-.2 1v.5.5c-.1.2-.1.5-.1 1 0 .4.1.8.1 1v.4c.1.3.1.5.1.7s.1.5.1.7c.3.9.7 1.7 1 2.3.4.6.9 1.1 1.7 1.6.2.2.5.3.7.4s.5.2.8.2h.3.3c.1 0 .3.1.4.1h.4.4c.3-.1.5-.1.8-.1s.5-.1.7-.2c.8-.3 1.5-.7 2-1.3a9.86 9.86 0 0 0 1.3-2l.3-.9c.1-.3.1-.6.2-1v-.4-.4-.4c0 .1 0-.1.1-.2z"/><use xlink:href="#C"/><use xlink:href="#D"/><use xlink:href="#E"/><use xlink:href="#D" x="57.6"/><path d="M269.4 68.2c.1.2.1.5.1.8s0 .6-.1.8v.5c-.1.3-.1.5-.1.8s0 .5-.1.8c-.1.2-.1.4-.1.6s-.1.4-.1.6c-.1.3-.2.7-.3 1.1s-.2.7-.4 1c-.7 1.5-1.5 2.7-2.6 3.7-1.1.9-2.4 1.7-3.9 2.4-.4.2-.8.3-1.2.4l-1.2.3c-.2.1-.3.1-.5.1h-.5-.3-.3c-.2 0-.4.1-.8.1-.3 0-.6 0-.8-.1h-.5-.5c-.2 0-.3 0-.5-.1h-.4-.4c-.3-.1-.6-.2-.9-.2l-.9-.3c-.4-.1-.7-.3-1.1-.4a4.67 4.67 0 0 1-1-.5c-1.1-.7-2-1.4-2.8-2.3s-1.4-1.9-2-3.2c-.2-.3-.3-.6-.4-.9l-.3-1c-.1-.2-.1-.3-.1-.4s0-.3-.1-.4c-.1-.3-.1-.5-.1-.8s0-.5-.1-.8v-.4-.4c-.1-.2-.1-.5-.1-.8s.1-.6.1-.8v-.3-.5c0-.2 0-.3.1-.5v-.4c0-.1 0-.3.1-.4l.3-1.2c.1-.4.2-.8.4-1.2.6-1.3 1.2-2.4 2-3.2.8-.9 1.7-1.7 2.9-2.4.3-.2.6-.3 1-.4.3-.1.7-.3 1-.4.4-.2.8-.3 1.3-.3s.9-.2 1.4-.3h.7.7c1.8 0 3.4.2 4.7.6s2.5 1 3.6 1.7c.3.3.7.5 1.1.8s.7.6.9 1c.3.3.5.6.7.9l.6 1c.2.4.4.7.5 1.1s.3.8.4 1.2c.1.3.2.5.2.8s.1.6.2.8v.4.4a.45.45 0 0 1 0 .5c-.1.2.5-.1.5.1zm-6.6 1.7v-.7-.7-.4c-.1-.2-.1-.3-.1-.5v-.5-.3c-.1-.3-.1-.5-.2-.8 0-.3-.1-.5-.2-.8-.3-.8-.8-1.5-1.2-2.1s-1.1-1-1.9-1.4c-.2-.1-.4-.1-.6-.2s-.4-.1-.6-.2c-.3-.1-.5-.1-.8-.1h-.8c-.1.1-.2.1-.3.1h-.3c-.2.1-.4.1-.6.2s-.4.1-.5.2c-.8.3-1.4.8-1.9 1.5-.5.6-.9 1.4-1.2 2.2-.1.3-.2.6-.2 1s-.1.7-.2 1v.5.5c-.1.2-.1.5-.1 1 0 .4.1.8.1 1v.4c.1.3.1.5.1.7s.1.5.1.7c.3.9.7 1.7 1 2.3.4.6.9 1.1 1.7 1.6.2.2.5.3.7.4s.5.2.8.2h.3.3c.1 0 .3.1.4.1h.4.4c.3-.1.5-.1.8-.1s.5-.1.7-.2c.8-.3 1.5-.7 2-1.3a9.86 9.86 0 0 0 1.3-2l.3-.9c.1-.3.1-.6.2-1v-.4-.4-.4c.1.1.1-.1.1-.2zm38.1-13.6c1.2 0 2.2.1 3.1.4s1.6.7 2.3 1.2c.3.2.5.4.7.7s.4.5.7.8c.1.1.2.1.3.3.1.1.3.1.4.1.3-.1.7-.3 1-.7s.6-.6.9-.8c.4-.3.9-.6 1.4-.9l1.7-.7c.3-.1.6-.1.9-.2s.7-.1 1.1-.1h1.1c.3 0 .7.1 1 .1h.4c.1 0 .3 0 .4.1.4.1.9.3 1.3.4s.8.3 1.1.5c1.3.8 2.3 2 3 3.6l.3.9c.1.3.1.6.2.9 0 .2 0 .4.1.6s0 .4.1.6v.5.7.7 2.7 9.2.9.9c0 .3-.1.6-.1.8-.1.3-.2.4-.3.5-.2.2-.4.3-.7.3h-1-2.5c-.4 0-.8 0-1.2-.1s-.6-.2-.7-.5c-.1-.2-.1-.5-.1-.7v-.8-2.6-6.4-2-.5c0-.2 0-.4-.1-.5v-.4-.6c0-.2 0-.4-.1-.6v-.4-.4c-.1-.5-.3-.9-.4-1.2s-.4-.7-.6-1c-.4-.4-1-.8-1.6-.9h-.3c-.1 0-.2 0-.3-.1-.1 0-.3-.1-.4-.1h-.5c-.2.1-.4.1-.6.1s-.4 0-.6.1c-.9.3-1.6.8-2 1.4a5.45 5.45 0 0 0-1 2.7l-.2 3.6v6.2 3.5.9c0 .3-.1.6-.3.8s-.4.4-.7.4-.6.1-1 .1h-2.5-.8c-.2 0-.5 0-.7-.1-.3-.2-.5-.4-.5-.8s-.1-.7-.1-1.2v-4-7.4l-.1-2.6c-.1-.8-.3-1.5-.6-2-.3-.4-.6-.8-1-1s-.9-.4-1.4-.6h-.4-.4c-.3-.1-.7 0-1 .1h-.2-.2c-.5.2-1 .4-1.5.8s-.9.8-1.1 1.3c-.3.5-.5 1-.6 1.6s-.2 1.3-.2 2v2.4 6.4 2.9.8c0 .2 0 .5-.1.8s-.4.5-.7.5c-.3.1-.7.1-1.2.1h-2.5-.9c-.3 0-.5-.1-.7-.2-.3-.2-.4-.5-.5-.9s0-.9 0-1.3v-5.5-11.6V59v-.9c0-.3.1-.5.2-.7.2-.2.4-.3.8-.4h.3.5.5 1.9.7c.2 0 .5.1.6.1.3.1.4.3.5.5s.1.5.2.8v.3.2c0 .1.1.2.1.2.1 0 .1.1.2.2.4 0 .7-.1.9-.4.3-.3.5-.5.7-.6a9.13 9.13 0 0 1 1.3-.8c.5-.3.9-.5 1.5-.6.3-.1.6-.2.8-.2s.6-.1.9-.1h.4c.2 0 .6-.2.7-.3zM354 68.2c.1.2.1.5.1.8s0 .6-.1.8v.5c-.1.3-.1.5-.1.8s0 .5-.1.8c-.1.2-.1.4-.1.6s-.1.4-.1.6c-.1.3-.2.7-.3 1.1s-.2.7-.4 1c-.7 1.5-1.5 2.7-2.6 3.7-1.1.9-2.4 1.7-3.9 2.4-.4.2-.8.3-1.2.4l-1.2.3c-.2.1-.3.1-.5.1h-.5-.3-.3c-.2 0-.4.1-.8.1-.3 0-.6 0-.8-.1h-.5-.5c-.2 0-.3 0-.5-.1h-.4-.4c-.3-.1-.6-.2-.9-.2l-.9-.3c-.4-.1-.7-.3-1.1-.4a4.67 4.67 0 0 1-1-.5c-1.1-.7-2-1.4-2.8-2.3s-1.4-1.9-2-3.2c-.2-.3-.3-.6-.4-.9l-.3-1c-.1-.2-.1-.3-.1-.4s0-.3-.1-.4c-.1-.3-.1-.5-.1-.8s0-.5-.1-.8v-.4-.4c-.1-.2-.1-.5-.1-.8s.1-.6.1-.8v-.3-.5c0-.2 0-.3.1-.5v-.4c0-.1 0-.3.1-.4l.3-1.2c.1-.4.2-.8.4-1.2.6-1.3 1.2-2.4 2-3.2.8-.9 1.7-1.7 2.9-2.4.3-.2.6-.3 1-.4.3-.1.7-.3 1-.4.4-.2.8-.3 1.3-.3s.9-.2 1.4-.3h.7.7c1.8 0 3.4.2 4.7.6s2.5 1 3.6 1.7c.3.3.7.5 1.1.8s.7.6.9 1c.3.3.5.6.7.9l.6 1c.2.4.4.7.5 1.1s.3.8.4 1.2c.1.3.2.5.2.8s.1.6.2.8v.4.4a.45.45 0 0 1 0 .5c-.1.2.4-.1.5.1zm-6.6 1.7v-.7-.7-.4c-.1-.2-.1-.3-.1-.5v-.5-.3c-.1-.3-.1-.5-.2-.8 0-.3-.1-.5-.2-.8-.3-.8-.8-1.5-1.2-2.1s-1.1-1-1.9-1.4c-.2-.1-.4-.1-.6-.2s-.4-.1-.6-.2c-.3-.1-.5-.1-.8-.1h-.8c-.1.1-.2.1-.3.1h-.3c-.2.1-.4.1-.6.2s-.4.1-.5.2c-.8.3-1.4.8-1.9 1.5-.5.6-.9 1.4-1.2 2.2-.1.3-.2.6-.2 1s-.1.7-.2 1v.5.5c-.1.2-.1.5-.1 1 0 .4.1.8.1 1v.4c.1.3.1.5.1.7s.1.5.1.7c.3.9.7 1.7 1 2.3.4.6.9 1.1 1.7 1.6.2.2.5.3.7.4s.5.2.8.2h.3.3c.1 0 .3.1.4.1h.4.4c.3-.1.5-.1.8-.1s.5-.1.7-.2c.8-.3 1.5-.7 2-1.3a9.86 9.86 0 0 0 1.3-2l.3-.9c.1-.3.1-.6.2-1v-.4-.4-.4c0 .1 0-.1.1-.2z"/><use xlink:href="#C" x="215.4"/><use xlink:href="#D" x="215.4"/><use xlink:href="#E" x="215.4"/></g><path d="M161.4 20.6c.6 0 1.1 0 1.6.2.4.1.8.3 1.2.6l.3.3c.1.1.2.3.3.4 0 0 .1.1.2.1.1.1.1.1.2 0 .2 0 .3-.2.5-.3s.3-.3.5-.4c.2-.2.5-.3.7-.4s.5-.2.9-.3c.1 0 .3-.1.5-.1h.6.6a.9.9 0 0 1 .5.1h.2.2c.2.1.4.1.7.2s.4.2.6.3c.7.4 1.2 1 1.5 1.8.1.1.1.3.1.4s.1.3.1.4v.3.3.2.3.4 1.4 4.7.4.5c0 .2 0 .3-.1.4 0 .1-.1.2-.1.3-.1.1-.2.1-.4.1h-.5-1.3-.6c-.2 0-.3-.1-.4-.3 0-.1-.1-.2-.1-.4v-.4-1.3-3.2-1-.3-.3-.2-.3-.3-.2-.2c-.1-.2-.1-.5-.2-.6s-.2-.3-.3-.5c-.2-.2-.5-.4-.8-.5h-.2-.2-.2-.3-.3-.3c-.5.2-.8.4-1 .7-.3.4-.4.8-.5 1.4s-.1 1.2-.1 1.8v3.2 1.8.5c0 .2 0 .3-.1.4s-.2.2-.3.2h-.5-1.3-.4c-.1 0-.3 0-.3-.1-.2-.1-.3-.2-.3-.4v-.6-2-3.8V25c0-.4-.1-.8-.3-1-.1-.2-.3-.4-.5-.5s-.4-.2-.7-.3h-.2-.2-.5-.1-.1c-.3.1-.5.2-.7.4-.3.2-.5.4-.6.7-.1.2-.2.5-.3.8s-.1.7-.1 1v1.2 3.2V32v.4c0 .1 0 .3-.1.4a1.38 1.38 0 0 1-.4.3h-.6-1.3-.5c-.2 0-.3 0-.4-.1s-.2-.2-.2-.5v-.7V29v-5.9-1.4-.5c0-.1 0-.3.1-.3.1-.1.2-.2.4-.2h.1.3.3 1 .4c.1 0 .2 0 .3.1.1 0 .2.1.3.2 0 .1.1.2.1.4v.1.1s0 .1.1.1l.1.1c.2 0 .4 0 .5-.2a1.38 1.38 0 0 1 .4-.3c.2-.2.5-.3.7-.4s.5-.2.8-.3c.1 0 .3-.1.4-.1s.3 0 .5-.1h.2c.1 0-.2.2-.1.2zm27 6v.4.4.2.4.4c0 .1-.1.2-.1.3v.3c-.1.2-.1.4-.2.5 0 .2-.1.4-.2.5-.3.8-.8 1.4-1.3 1.9s-1.2.9-2 1.2c-.2.1-.4.1-.6.2-.2 0-.4.1-.6.1h-.3-.3-.2-.2-.4-.4-.2-.3-.3-.2-.2c-.2 0-.3-.1-.5-.1s-.3-.1-.5-.1c-.2-.1-.4-.1-.5-.2s-.3-.1-.5-.2c-.6-.3-1-.7-1.4-1.2-.4-.4-.7-1-1-1.6-.1-.1-.1-.3-.2-.5s-.1-.3-.1-.5v-.2-.2-.4-.4-.2-.2-.4c0-.2 0-.3.1-.4v-.2-.3-.3-.2-.2c.1-.2.1-.4.2-.6s.1-.4.2-.6c.3-.7.6-1.2 1-1.6s.9-.8 1.5-1.2c.2-.1.3-.2.5-.2.2-.1.4-.1.5-.2.2-.1.4-.1.6-.2.2 0 .5-.1.7-.1h.4.3c.9 0 1.7.1 2.4.3s1.3.5 1.8.9c.2.1.4.3.5.4l.5.5c.1.2.2.3.3.5s.2.3.3.5l.3.6c.1.2.1.4.2.6 0 .1.1.3.1.4s.1.3.1.4v.2.2.3c.2-.1.2 0 .2.1zm-3.4.9v-.3-.3-.2-.3-.3-.1c0-.1-.1-.3-.1-.4s-.1-.3-.1-.4l-.6-1.1c-.2-.3-.6-.5-1-.7-.1 0-.2-.1-.3-.1s-.2-.1-.3-.1h-.4-.4-.2-.2c-.1 0-.2.1-.3.1s-.2.1-.3.1c-.4.2-.7.4-1 .8s-.4.7-.6 1.1c0 .2-.1.3-.1.5s-.1.4-.1.5v.2.2.5c0 .2 0 .4.1.5v.3c0 .1.1.3.1.4s0 .2.1.4c.2.5.3.9.5 1.2a2.36 2.36 0 0 0 .9.8c.1.1.2.1.4.2.1 0 .3.1.4.1h.2.2.2.2.2c.1 0 .3-.1.4-.1s.2 0 .4-.1c.4-.2.8-.4 1-.6.3-.3.5-.6.6-1 .1-.2.1-.3.1-.5s.1-.3.1-.5v-.2-.2-.2s-.1-.1-.1-.2zm13.5-6.9c-.2-.1-.4-.1-.6-.2s-.4-.1-.6-.2a1.38 1.38 0 0 1-.4-.3c-.1-.1-.2-.3-.1-.5 0-.1 0-.2.1-.2 0-.1.1-.1.1-.2s.1-.2.1-.3.1-.2.2-.2c.2-.1.4-.2.6-.1s.4.2.6.2c.2.1.4.2.6.2.1 0 .2.1.4.1s.3 0 .4-.1.1-.3.1-.7v-.8-.2-.2-.2-.2c0-.2.2-.3.3-.4h.1.1.7a.55.55 0 0 1 .5.3v.3.4.5.5.4c0 .1.1.2.1.3.1 0 .2.1.3.1h.3c.2-.1.4-.2.7-.3s.4-.2.7-.3c.1 0 .3-.1.4-.1.2 0 .3 0 .3.1.1.1.1.2.2.3s.1.2.1.3.1.2.1.2c0 .1 0 .1.1.2 0 .2 0 .4-.1.5a.76.76 0 0 1-.4.2c-.2.1-.4.2-.6.2-.2.1-.4.1-.6.2-.1 0-.2.1-.3.1s-.2.1-.2.3c0 .1 0 .3.1.4l.3.3c.1.2.2.3.4.5.1.2.2.3.4.5 0 0 .1.1.1.2s.1.2 0 .3c0 .1-.1.3-.2.3s-.2.2-.3.3c-.1 0-.2.1-.2.2-.1.1-.2.1-.3.1-.2.1-.3 0-.5-.1l-.3-.3c-.1-.2-.2-.3-.3-.5s-.2-.3-.4-.5c-.1-.1-.1-.2-.2-.3s-.2-.2-.3-.2-.2 0-.3.1-.2.2-.2.3l-.6.9c-.1.1-.1.2-.2.2s-.1.1-.2.2c-.1 0-.1.1-.2.1h-.3c-.1 0-.2-.1-.3-.1s-.2-.1-.2-.2c-.1-.1-.2-.1-.3-.2s-.2-.2-.2-.3v-.3c0-.1.1-.2.1-.2.1-.2.2-.4.4-.6.1-.2.3-.4.4-.5s.1-.2.3-.3c.1-.1.1-.3.1-.4s-.1-.2-.2-.3-.6.2-.7.2z" fill="#f7dd15"/><defs ><path id="B" d="M121.3 15.9v.6.7.5.5.7l-.1 1.7c0 .3-.1.5-.1.8s-.1.5-.1.8c-.2.6-.3 1.1-.4 1.7s-.2 1.1-.4 1.7c-.6 1.9-1.4 3.6-2.4 4.9s-2.4 2.3-4.3 3.1c-.4.2-.8.3-1.3.3l-1.4.3h-.6-.6-.5c-.2 0-.4 0-.5-.1h-.5-.3-.3c-.3-.1-.5-.1-.8-.1s-.5-.1-.8-.1l-1.6-.5c-.5-.2-1-.4-1.4-.7-1.2-.7-2.1-1.6-2.8-2.5a15.6 15.6 0 0 1-1.8-3.4c-.2-.4-.3-.9-.4-1.4s-.2-.9-.4-1.4c-.1-.3-.2-.7-.2-1.1s-.1-.8-.2-1.1v-.4-.4-.6c0-.2 0-.4-.1-.6 0-.2-.1-.3 0-.4V19c-.1-.3-.1-.5-.1-.8v-.8-.7c0-.3 0-.4.1-.6v-.6c.1-.3.1-.5.1-.7s0-.5.1-.7v-.5c.1-.2.1-.4.1-.6s0-.4.1-.6.1-.3.1-.5 0-.4.1-.6l.3-1.3.3-1.2c.6-1.9 1.4-3.5 2.4-4.7a10.67 10.67 0 0 1 4.1-3c.4-.2.8-.3 1.2-.4l1.3-.3h.5.5.3.3c1.7 0 3.1.2 4.4.6s2.3 1 3.2 1.7 1.7 1.7 2.3 2.7c.6 1.1 1.1 2.2 1.5 3.4.2.5.3 1.1.4 1.6.1.6.2 1.1.4 1.7.1.3.1.5.1.7s0 .5.1.7c.1.3.1.6.1 1s0 .7.1 1v.4zm-6.6 2.1v-.5-.5-.5-.5-.4-.6c0-.2 0-.4-.1-.6V14c-.1-.3-.1-.6-.1-.9s0-.6-.1-.9-.1-.5-.2-.8c0-.3-.1-.5-.2-.8-.3-.9-.5-1.7-.9-2.5s-.8-1.4-1.5-1.8c-.4-.3-.8-.5-1.2-.6-.5-.1-1-.2-1.7-.2-.1.1-.1.1-.3 0s-.2 0-.3 0c-.2.1-.3.1-.4.1s-.3.1-.4.1c-.7.3-1.3.8-1.7 1.4a12.81 12.81 0 0 0-1.1 2c-.2.5-.3 1-.4 1.5l-.3 1.7c0 .3 0 .5-.1.8 0 .3 0 .5-.1.8 0 .3-.1.5-.1.8v.8.5c-.1.2-.1.3-.1.5v.5.5a.9.9 0 0 0 .1.5v.5.5.7c.1.3.1.6.1.9s0 .6.1.9v.4c.1.3.1.6.1.9s.1.6.1.9l.6 1.7c.2.5.5 1 .8 1.5a5.73 5.73 0 0 0 1.1 1.1c.4.3.8.5 1.4.7.2.1.4.1.7.2s.5 0 .8 0c.2-.1.3-.1.5-.1s.3 0 .5-.1c.3-.1.7-.3 1.1-.5s.7-.5.9-.7c.3-.4.5-.8.7-1.2l.6-1.2c.2-.4.3-.8.3-1.2s.2-.9.3-1.3c0-.2.1-.3.1-.4s0-.3.1-.4c.1-.2.1-.4.1-.7 0-.2 0-.5.1-.7v-.8c0-.3 0-.5.1-.8V18z"/><path id="C" d="M156.8 56.3c1.9-.1 3.5.2 4.7.8 1.3.6 2.3 1.5 3 2.6.2.3.4.7.5 1.1s.3.8.4 1.2c.1.3.1.5.1.7s.1.4.1.7v.4c.1.4.1.9.1 1.4v1.4 4.2 7.6 1.7c0 .5-.2.9-.7 1.1-.2.1-.4.1-.7.1h-.8-2.5c-.4 0-.7 0-1-.1s-.5-.2-.7-.4c-.1-.2-.2-.4-.2-.7v-1-3.3-7l-.1-3.2a6.14 6.14 0 0 0-.8-2.5c-.4-.6-1.1-1.1-1.9-1.3-.2-.1-.3-.1-.5-.1s-.4 0-.5-.1h-.6c-.2 0-.4 0-.5.1h-.3-.3c-.7.2-1.3.4-1.7.8-1 .7-1.6 1.8-1.8 3.2s-.3 2.9-.3 4.7v5.9V79v.8c0 .2 0 .5-.1.7-.2.3-.4.6-.8.6-.3.1-.8.1-1.3.1h-2.4c-.3 0-.7 0-1-.1-.3 0-.6-.2-.8-.3-.2-.3-.4-.7-.3-1.2s0-1 0-1.5v-6.4-10.3V59v-.9a1.08 1.08 0 0 1 .3-.7c.1-.1.2-.2.3-.2s.3-.1.4-.1h.2.5.5 2 .7c.2 0 .4.1.6.1.2.1.4.2.4.4.1.2.1.4.2.7v.3.3c.1.2.1.3.2.3s.1.1.2.1c.3 0 .6-.1.9-.4.2-.3.5-.5.7-.6.8-.6 1.8-1.1 2.8-1.5.3-.1.6-.2.9-.2s.6-.1 1-.1h.4c.2 0 .5-.1.5-.2z"/><path id="D" d="M174.2 49.7h3.2c.5 0 .9 0 1.3.1s.6.2.8.6c.1.2.1.3.1.6v.7 2.1.5.5.5.7c0 .2.1.4.2.5.2.3.6.4 1.2.4h1.7.6c.2 0 .4 0 .5.1.3.2.5.4.6.8s.1.9.1 1.4v.7c0 .2 0 .4-.1.6-.2.5-.5.8-1 .8h-1.7-.4-.4-.3c-.1 0-.2 0-.3.1-.3.1-.4.2-.5.4s-.2.4-.3.7v.5.5 2.9 5.5c0 .8 0 1.5.1 2 0 .6.2 1.1.6 1.5.2.2.4.3.6.4.3.1.5.1.8.2h.3.3.5.9c.3 0 .5.2.6.4s.2.4.2.7v.9 1.8c0 .5-.3.9-.8 1.1-.2.1-.3.1-.4.1s-.3 0-.4.1h-.5-.3-.3-.5-.5-.5-.4-.5-.5-.5c-.2 0-.4-.1-.6-.1s-.4-.1-.6-.1l-1-.3c-.3-.1-.6-.3-.9-.4-.1-.1-.2-.1-.3-.2l-.3-.3-.2-.2c-.1-.1-.2-.1-.2-.2-.4-.6-.8-1.3-1-2-.1-.1-.1-.2-.1-.4v-.4-.2-.2-.5-.4-.5-1.8-7-2.5-.7c0-.2 0-.4-.1-.6-.1-.4-.3-.7-.7-.8-.3-.2-.8-.2-1.3-.1s-1 0-1.4-.1c-.3-.1-.4-.2-.5-.4s-.1-.4-.2-.7v-1c0-.6 0-1 .1-1.4s.3-.6.8-.7c.1-.1.3-.1.4-.1h.4c.5 0 .9 0 1.3-.1s.7-.2.8-.5c.1-.2.1-.5.2-.8v-.8-2.9-.8c0-.3 0-.5.1-.7.2-.3.4-.5.7-.6.1 0 .1-.1.3 0 0 .2.1.2.2.1z"/><path id="E" d="M188.8 47.8h3.2.9c.3 0 .5.1.7.2s.4.4.4.8v.4.4 1.7 5.4.8.8c0 .2.1.5.2.7a.55.55 0 0 0 .5.3c.1-.1.1-.1.2-.1s.1 0 .2-.1c.2-.2.4-.3.6-.5s.4-.4.7-.5c.3-.3.7-.5 1.1-.7l1.2-.6c.1-.1.3-.1.4-.1s.3 0 .4-.1c.3-.1.6-.2 1-.2h1.1.4.4.3c.2 0 .4.1.6.1s.4.1.6.1c.5.2 1 .3 1.5.5s.9.4 1.3.6c.7.4 1.2 1 1.7 1.7s.8 1.4 1.1 2.2c.1.3.1.5.2.8s.1.5.2.8.1.6.1.9 0 .6.1.9v.5a1.1 1.1 0 0 1 0 .8v.8 3.3 7.4 1.7c0 .6-.1 1.1-.4 1.4-.2.2-.4.3-.8.3h-1-2.4c-.5 0-.9 0-1.3-.1-.3 0-.6-.2-.8-.6-.1-.2-.1-.4-.1-.7V79v-2.7V69c0-1.3-.1-2.5-.2-3.7s-.5-2-1.2-2.6c-.4-.4-1-.8-1.6-.9h-.3-.3c-.1 0-.3-.1-.5-.1h-.5-.6c-.2 0-.4 0-.6.1-.7.2-1.3.5-1.9.8-.6.4-1 1-1.2 1.8-.3.7-.4 1.6-.5 2.5s-.1 1.9-.1 2.9v3 5.7 1.3c0 .5-.1.8-.3 1.1-.1.1-.2.2-.4.3s-.3.1-.5.2-.4.1-.6 0h-.7-1-1.1c-.3 0-.7 0-1-.1-.3 0-.6-.1-.7-.3-.2-.2-.3-.4-.3-.7v-1-4.2-17.7V51v-1.5c0-.6 0-1 .2-1.2s.4-.4.8-.5h.2.4z"/></defs></svg>