<svg xmlns="http://www.w3.org/2000/svg" width="335" height="99.7" overflow="visible" xmlns:v="https://vecta.io/nano"><path fill="#4d4d4d" d="M335 50.7c0 27.1-22 49-49 49H50.2c-27.1 0-49-22-49-49h0c0-27.1 22-49 49-49H286c27 0 49 21.9 49 49h0z"/><path fill="#fff" d="M333.8 49c0 27.1-22 49-49 49H49C22 98 0 76.1 0 49h0C0 22 22 0 49 0h235.7c27.1 0 49.1 22 49.1 49h0z"/><g fill="#f0037f"><path d="M77.4 38.8c1.9 0 3.5.3 4.7 1s2.2 1.6 2.9 2.7c.2.3.4.6.5.9s.2.7.4 1c0 .1.1.3.1.4v.5c0 .1-.1.2-.2.2s-.2.1-.3.1h-.2c-.1 0-.2.1-.4 0s-.3 0-.4 0h-.6-.7c-.3 0-.4 0-.6-.1s-.3-.1-.4-.1c-.1-.1-.3-.3-.3-.5s-.2-.4-.3-.6a3.16 3.16 0 0 0-1.4-1.4l-1.3-.6a3.73 3.73 0 0 0-1.2-.2c-.5 0-.9 0-1.2.1-.1 0-.3.1-.4.1s-.2.1-.4.1c-1.2.5-2.1 1.4-2.6 2.6-.1.2-.2.4-.2.7s-.2.5-.2.7c0 .1 0 .2-.1.4 0 .1 0 .2-.1.4v.3.4c0 .1-.1.3 0 .4v.4.2.2.2.3.3c0 .1 0 .3.1.4 0 .2.1.4.1.6s.1.3.1.5c.3.8.6 1.4 1 1.9s.9 1 1.6 1.3c.2.1.4.2.6.2.2.1.5.1.7.2h.3.3.2.4.4.2c.2 0 .4-.1.6-.1s.4-.1.6-.2c.4-.2.8-.4 1.1-.7s.6-.6.8-1l.3-.6c.1-.2.2-.4.2-.7.1-.2.1-.4.2-.5s.2-.3.4-.4c.1 0 .2-.1.4-.1h.5H85h.5c.2 0 .3 0 .4.1s.2.2.2.4 0 .4-.1.6l-.2.7-.3.8c-.1.3-.2.5-.3.7a.76.76 0 0 0-.2.4c-.1.1-.1.3-.2.4-1 1.6-2.4 2.6-4.3 3.2-.2.1-.4.1-.6.2s-.4.1-.6.1H79h-.3-.4-.4-.4-.5c-.2 0-.3 0-.5-.1h-.3-.4-.4c-.2-.1-.4-.1-.5-.1-.2 0-.3-.1-.5-.1-.2-.1-.3-.1-.5-.2s-.3-.1-.5-.2c-1.1-.5-2-1.1-2.7-1.9s-1.4-1.7-1.8-2.8l-.3-.8c-.1-.3-.2-.5-.2-.8 0-.1-.1-.2-.1-.2v-.2c0-.2-.1-.3-.1-.5s0-.4-.1-.5v-.2-.2-.5c0-.1-.1-.2-.1-.4s0-.3.1-.4V48v-.1.1c0-.1.1-.3.1-.5V47c0-.1.1-.3.1-.4s0-.3.1-.4c.1-.3.1-.5.2-.7s.1-.5.2-.7.2-.5.3-.7.2-.5.3-.6l.9-1.4c.1-.1.2-.2.3-.4l.3-.3a6.73 6.73 0 0 1 1.4-1.1c.5-.3 1.1-.6 1.7-.9.2-.1.4-.2.7-.2.2-.1.5-.1.7-.2.1 0 .2-.1.3-.1s.2 0 .3-.1h.4.4.1.5zm29.9 9.4c0 .1.1.3.1.6v.6.4c0 .2-.1.4-.1.6s0 .4-.1.6c0 .1-.1.3-.1.4s0 .3-.1.4l-.3.9-.3.9c-.5 1.3-1.3 2.3-2.2 3.2-.9.8-2.1 1.5-3.4 1.9-.2.1-.4.1-.6.2s-.4.1-.6.1c-.1 0-.2.1-.3.1H99l-.9.1h-.4-.4-.3-.3-.3c-.1 0-.3-.1-.4-.1s-.3 0-.4-.1c-.1 0-.3-.1-.4-.1s-.3-.1-.4-.1c-.2-.1-.4-.1-.6-.2s-.4-.2-.6-.2c-1.1-.5-2-1.1-2.7-1.9-.8-.8-1.4-1.7-1.8-2.8l-.3-.8c-.1-.3-.2-.6-.2-.9 0-.1-.1-.2-.1-.2v-.2c0-.1-.1-.3-.1-.4s0-.3-.1-.4v-.3-.2-.3-.3c0-.1-.1-.2-.1-.4s0-.3.1-.4v-.3-.3-.2-.4-.3c0-.1.1-.2.1-.3s0-.2.1-.3c.1-.3.2-.6.2-.9s.1-.6.2-.9.3-.6.4-.9.3-.6.5-.9c.5-.9 1.2-1.6 1.9-2.2s1.6-1.1 2.6-1.5c.2-.1.5-.2.7-.2.3-.1.5-.1.8-.2.1 0 .2-.1.3-.1h.3l.8-.1h.1.1c1.3 0 2.4.1 3.3.4s1.8.7 2.5 1.2c.2.2.5.3.7.6.3.2.5.4.6.6l.3.3c.1.1.2.2.2.3l.6.9c.2.3.4.6.5 1 .1.3.2.5.3.7s.2.5.3.8c.1.2.1.4.1.6s.1.4.1.6c0 .1.1.2.1.4s0 .2.1.3 0 .2 0 .3v.3h0zm-4.2 1.1c0-.1.1-.2.1-.4s0-.3-.1-.4V48v-.2-.2c0-.1-.1-.3-.1-.4s0-.3-.1-.4c0-.1 0-.2-.1-.3-.1-.2-.1-.4-.2-.6s-.1-.4-.2-.6c-.4-.9-1-1.7-1.7-2.2-.7-.6-1.8-.9-3.1-.9h-.1-.1-.2-.2c-.2 0-.4.1-.6.1s-.4.1-.5.2c-.9.5-1.5.9-1.9 1.5s-.8 1.3-1.1 2.1c-.1.2-.1.4-.1.6s-.1.4-.1.6v.2.2.3.3c0 .1-.1.3-.1.5v.5.3.2.2.2.2c.1.2.1.4.1.6s.1.4.1.6c.2.6.4 1.1.7 1.6s.6.9 1.1 1.2c.1.1.2.2.3.2.1.1.2.1.3.2l.6.3c.2.1.5.1.7.2.1 0 .2.1.3 0h.3c.1 0 .2.1.3.1h.4.2.2.2c.2 0 .4-.1.5-.1.2 0 .4-.1.5-.1.8-.3 1.4-.7 1.8-1.2s.8-1.1 1.1-1.9c.1-.2.2-.4.2-.7s.1-.5.2-.7l.3-.7v-.2-.3-.2zm7.9-10.1h2.2.6c.2 0 .4 0 .5.1.2.1.3.2.4.3s.2.3.3.4l1 1.5 1.9 3.1 1.9 3.1.9 1.5.9 1.4c.1.1.1.2.2.3s.1.2.3.3l.1.1h.2c.1 0 .2-.1.2-.2s0-.3.1-.4v-.4-.4-1.7-6.3-1-.3-.2-.4c0-.3.1-.5.2-.6s.2-.2.4-.2h.5 1.7.4c.1 0 .3 0 .4.1.2.1.4.2.4.5v.8 3 11.3 2.3.6c0 .2 0 .4-.1.5s-.2.2-.3.2-.2.1-.4.1h-1-1.5-.5c-.2 0-.3 0-.4-.1-.2-.1-.4-.2-.5-.4s-.2-.3-.3-.5l-.5-.8-.5-.8-4.1-6.5c-.3-.4-.5-.8-.7-1.2s-.5-.8-.7-1.2c-.1-.1-.2-.3-.3-.5a.55.55 0 0 0-.5-.3.76.76 0 0 0-.2.4v.6 1.9 6.5 1.1.3.3.3c0 .3 0 .5-.1.6s-.2.2-.4.2h-.5-1.6-.4c-.1 0-.3 0-.4-.1-.2-.1-.4-.3-.4-.5v-.8V54 43.1v-2.5-.6c0-.2 0-.4.1-.5s.2-.2.4-.3h.1 0zm29.3 0h2.8.7c.2 0 .4.1.6.1.1 0 .1.1.1.2s0 .2.1.3v.1.2.3 1.1.4.3c-.1.3-.3.5-.5.5h-1-2.8-.9c-.3 0-.4.2-.5.5v.2.2.4.4 2.4 7.8 2.5.7c0 .2-.1.4-.3.4-.1 0-.3.1-.4.1h-.5-1.8-.6c-.2 0-.3-.1-.4-.2s-.1-.3-.1-.6v-.7-2.7-7.5-2.3-.4-.4-.2-.2c-.1-.3-.3-.5-.6-.5h-1-2.5-.7-.6c-.1-.1-.3-.1-.3-.2-.1-.1-.1-.2-.1-.4v-.4-1.3-.6c0-.2.1-.3.3-.4.1 0 .2-.1.3-.1h.1 10.6zm20.4 18c0 .1 0 .2.1.3s.1.2.1.3v.3c0 .1-.1.2-.2.2-.1.1-.4.1-.7.1h-.8-1.3-.4-.3a1.38 1.38 0 0 1-.4-.3c-.1-.1-.2-.3-.2-.5s-.1-.3-.2-.5l-.3-.9-.3-.8c-.1-.2-.1-.3-.1-.4s-.1-.3-.1-.4c-.1-.1-.1-.2-.2-.3s-.3-.1-.4-.2h-.3-.3-4.4-1c-.4 0-.6.1-.8.2-.1.1-.2.3-.3.4-.1.2-.1.4-.2.5-.1.3-.3.6-.4 1l-.3 1c-.1.2-.1.4-.2.6s-.2.4-.3.5-.2.1-.4.1h-.6-.6-.6-.9c-.3 0-.6 0-.7-.1s-.1-.1-.1-.2v-.3c0-.1.1-.2.1-.3s.1-.2.1-.3c.2-.4.3-.8.5-1.3.2-.4.3-.9.5-1.3.1-.1.1-.3.2-.4s.1-.3.2-.4c.1-.4.3-.8.4-1.2s.3-.8.4-1.2.3-.7.4-1.1.3-.7.4-1.1l1.2-3 1.2-3c0-.1.1-.2.1-.2s0-.2.1-.2c.1-.4.3-.8.4-1.2s.3-.8.5-1.2c.1-.2.2-.4.2-.6.1-.2.2-.4.3-.5s.2-.1.4-.1h.1.1 2.4.6c.2 0 .4 0 .5.1.2.1.3.3.4.5s.1.4.2.6c.1.3.2.6.4.9s.2.6.4.9c0 .1.1.2.1.3s.1.2.1.3c.1.4.3.7.4 1.1s.3.7.4 1.1c.4.9.7 1.8 1 2.7l1 2.7c0 .1.1.1.1.2s0 .1.1.2l.3.9.3.9c.1.1.1.3.2.4 0 .1.1.3.1.4.2.6.5 1.2.6 1.7a12.2 12.2 0 0 0 .7 1.7c0 .1.1.1.1.1s-.2.3-.1.3zm-7.1-6.2c.2-.1.3-.2.3-.5 0-.2-.1-.4-.2-.6 0-.1-.1-.1-.1-.2s0-.1-.1-.2c-.2-.6-.5-1.2-.6-1.9-.2-.6-.4-1.3-.7-1.9 0-.1-.1-.2-.1-.3s-.1-.3-.1-.4-.1-.2-.2-.3-.2-.1-.3-.1l-.1.1s-.1 0-.1.1c-.1.2-.2.4-.3.7s-.1.5-.2.7l-.6 1.5-.6 1.6c-.1.2-.1.4-.2.5-.1.2-.1.4-.2.6-.1.1 0 .3 0 .5.1.1.2.2.4.2h.6 2.1.5c.2 0 .7-.1.8-.1zm17.5-12.2c1.9 0 3.5.3 4.7 1s2.2 1.6 2.9 2.7c.2.3.4.6.5.9s.2.7.4 1c0 .1.1.3.1.4v.5c0 .1-.1.2-.2.2s-.2.1-.3.1h-.2c-.1 0-.2.1-.4 0s-.3 0-.4 0h-.6-.7c-.2 0-.4 0-.6-.1-.2 0-.3-.1-.4-.1-.1-.1-.3-.3-.3-.5s-.2-.4-.3-.6a3.16 3.16 0 0 0-1.4-1.4l-1.3-.6a3.73 3.73 0 0 0-1.2-.2c-.5 0-.9 0-1.2.1-.1 0-.3.1-.4.1s-.2.1-.4.1c-1.2.5-2.1 1.4-2.6 2.6-.1.2-.2.4-.2.7s-.2.5-.2.7c0 .1 0 .2-.1.4 0 .1 0 .2-.1.4v.3.4.4.4.2.2.2.3.3c0 .1 0 .3.1.4 0 .2.1.4.1.6s.1.3.1.5c.3.8.6 1.4 1 1.9s.9 1 1.6 1.3c.2.1.4.2.6.2.2.1.5.1.7.2h.3.3.2.4.4.2c.2 0 .4-.1.6-.1s.4-.1.6-.2c.4-.2.8-.4 1.1-.7s.6-.6.8-1l.3-.6c.1-.2.2-.4.2-.7.1-.2.1-.4.2-.5s.2-.3.4-.4c.1 0 .2-.1.4-.1h.5 1.7.5c.2 0 .3 0 .4.1s.2.2.2.4 0 .4-.1.6l-.2.7-.3.8c-.1.3-.2.5-.3.7a.76.76 0 0 0-.2.4c-.1.1-.1.3-.2.4-1 1.6-2.4 2.6-4.3 3.2-.2.1-.4.1-.6.2s-.4.1-.6.1h-.3-.3-.4-.4-.4-.5c-.2 0-.3 0-.5-.1h-.3-.4-.4c-.2-.1-.4-.1-.5-.1-.2 0-.3-.1-.5-.1-.2-.1-.3-.1-.5-.2s-.3-.1-.5-.2c-1.1-.5-2-1.1-2.7-1.9-.8-.8-1.4-1.7-1.8-2.8l-.3-.8c-.1-.3-.2-.5-.2-.8 0-.1-.1-.2-.1-.2v-.2c0-.2-.1-.3-.1-.5s0-.4-.1-.5v-.2-.2-.5c0-.1-.1-.2-.1-.4s0-.3.1-.4V48v-.1.1c0-.1.1-.3.1-.5V47c0-.1.1-.3.1-.4s0-.3.1-.4c.1-.3.1-.5.2-.7s.1-.5.2-.7.2-.5.3-.7.2-.5.3-.6l.9-1.4c.1-.1.2-.2.3-.4l.3-.3a6.73 6.73 0 0 1 1.4-1.1c.5-.3 1.1-.6 1.7-.9.2-.1.4-.2.7-.2.2-.1.5-.1.7-.2.1 0 .2-.1.3-.1s.2 0 .3-.1h.4.4.1.2zm21.9.4h2.8.7c.2 0 .4.1.6.1.1 0 .1.1.1.2s0 .2.1.3v.1.2.3 1.1.4.3c-.1.3-.3.5-.5.5h-1-2.8-.9c-.3 0-.4.2-.5.5v.2.2.4.4 2.4 7.8 2.5.7c0 .2-.1.4-.3.4-.1 0-.3.1-.4.1h-.5-1.8-.6c-.2 0-.3-.1-.4-.2s-.1-.3-.1-.6v-.7-2.7-7.5-2.3-.4-.4-.2-.2c-.1-.3-.3-.5-.6-.5h-1-2.5-.7-.6c-.1-.1-.3-.1-.3-.2-.1-.1-.1-.2-.1-.4v-.4-1.3-.6c0-.2.1-.3.3-.4.1 0 .2-.1.3-.1h.1H193zm14.7 0h2.2.6c.2 0 .4 0 .5.1a1.38 1.38 0 0 1 .4.3c.1.1.2.3.3.4l1 1.5 1.9 3.1 1.9 3.1.9 1.5.9 1.4c.1.1.1.2.2.3s.1.2.3.3l.1.1h.2c.1 0 .2-.1.2-.2s0-.3.1-.4v-.4-.4-1.7-6.3-1-.3-.2-.4c0-.3.1-.5.2-.6s.2-.2.4-.2h.5 1.7.4c.1 0 .3 0 .4.1.2.1.4.2.4.5v.8 3 11.3 2.3.6c0 .2 0 .4-.1.5s-.2.2-.3.2-.2.1-.4.1h-1-1.5-.5c-.2 0-.3 0-.4-.1-.2-.1-.4-.2-.5-.4s-.2-.3-.3-.5l-.5-.8-.5-.8-4.1-6.5c-.3-.4-.5-.8-.7-1.2s-.5-.8-.7-1.2c-.1-.1-.2-.3-.3-.5a.55.55 0 0 0-.5-.3.76.76 0 0 0-.2.4v.6 1.9 6.5 1.1.3.3.3c0 .3 0 .5-.1.6s-.2.2-.4.2h-.5-1.6-.4c-.1 0-.3 0-.4-.1-.2-.1-.4-.3-.4-.5v-.8V54 43.1v-2.5-.6c0-.2 0-.4.1-.5s.2-.2.4-.3h.1c-.1 0 0 0 0 0z"/><path d="M245.1 48.2c0 .1.1.3.1.6v.6.4c0 .2-.1.4-.1.6s0 .4-.1.6c0 .1-.1.3-.1.4s0 .3-.1.4l-.3.9-.3.9c-.5 1.3-1.3 2.3-2.2 3.2-.9.8-2.1 1.5-3.4 1.9-.2.1-.4.1-.6.2-.2 0-.4.1-.6.1-.1 0-.2.1-.3.1h-.3l-.9.1h-.4-.4-.3-.3-.3c-.1 0-.3-.1-.4-.1s-.3 0-.4-.1c-.1 0-.3-.1-.4-.1s-.3-.1-.4-.1c-.2-.1-.4-.1-.6-.2s-.4-.2-.6-.2c-1.1-.5-2-1.1-2.7-1.9s-1.4-1.7-1.8-2.8l-.3-.8c-.1-.3-.2-.6-.2-.9 0-.1-.1-.2-.1-.2v-.2c0-.1-.1-.3-.1-.4s0-.3-.1-.4v-.3-.2-.3-.3c0-.1-.1-.2-.1-.4s0-.3.1-.4v-.3-.3-.2-.4-.3c0-.1.1-.2.1-.3s0-.2.1-.3c.1-.3.2-.6.2-.9s.1-.6.2-.9.3-.6.4-.9.3-.6.5-.9c.5-.9 1.2-1.6 1.9-2.2s1.6-1.1 2.6-1.5c.2-.1.5-.2.7-.2.3-.1.5-.1.8-.2.1 0 .2-.1.3-.1h.3l.8-.1h.1.1c1.3 0 2.4.1 3.3.4s1.8.7 2.5 1.2c.2.2.5.3.7.6.3.2.5.4.6.6l.3.3c.1.1.2.2.2.3l.6.9c.2.3.4.6.5 1 .1.3.2.5.3.7s.2.5.3.8c.1.2.1.4.1.6s.1.4.1.6c0 .1.1.2.1.4s0 .2.1.3 0 .2 0 .3v.3h0zm-4.2 1.1c0-.1.1-.2.1-.4s0-.3-.1-.4V48v-.2-.2c0-.1-.1-.3-.1-.4s0-.3-.1-.4c0-.1 0-.2-.1-.3-.1-.2-.1-.4-.2-.6s-.1-.4-.2-.6c-.4-.9-1-1.7-1.7-2.2s-1.8-.9-3.1-.9h-.1-.1-.2-.2c-.2 0-.4.1-.6.1s-.4.1-.5.2c-.8.3-1.4.8-1.8 1.4s-.8 1.3-1.1 2.1c-.1.2-.1.4-.1.6s-.1.4-.1.6v.2.2.3.3c0 .1-.1.3-.1.5v.5.3.2.2.2.2c.1.2.1.4.1.6s.1.4.1.6c.2.6.4 1.1.7 1.6s.6.9 1.1 1.2c.1.1.2.2.3.2.1.1.2.1.3.2l.6.3c.2.1.5.1.7.2.1 0 .2.1.3 0h.3c.1 0 .2.1.3.1h.4.2.2.2c.2 0 .4-.1.5-.1.2 0 .4-.1.5-.1.8-.3 1.4-.7 1.8-1.2s.8-1.1 1.1-1.9c.1-.2.2-.4.2-.7s.1-.5.2-.7l.1-.7v-.2-.3-.1zm6.2-10.1h2.1.6c.2 0 .4 0 .5.1s.2.3.3.4c0 .2.1.4.1.6.1.3.1.5.2.8s.1.5.2.8c0 .1.1.2.1.2v.2c.1.3.1.5.2.8 0 .3.1.5.2.8.1.2.1.4.2.6 0 .2.1.4.1.6.2.6.3 1.2.4 1.8s.3 1.2.4 1.8c.1.3.2.5.2.8s.1.5.2.8c.1.2.1.4.2.6s.1.3.3.4h.1.1c.1 0 .2-.1.2-.3.1-.2.1-.3.1-.4.1-.2.1-.5.2-.7s.1-.5.2-.7c0-.1 0-.2.1-.3 0-.1 0-.2.1-.3.1-.2.2-.5.2-.7s.1-.5.2-.7c0-.1 0-.1.1-.2 0-.1 0-.2.1-.2.1-.2.1-.3.1-.5s.1-.3.1-.5c0-.1.1-.3.1-.3 0-.1.1-.3.1-.4s.1-.3.1-.4c.2-.5.3-1 .4-1.5s.2-1 .4-1.5c.1-.3.2-.5.2-.8s.1-.5.2-.8c.1-.2.1-.4.2-.6a.78.78 0 0 1 .4-.4c.1 0 .3-.1.4-.1h.5 1.6.6c.2 0 .3.1.4.1s.2.2.2.4.1.3.1.5c.1.3.2.7.2 1s.2.7.2 1c.1.2.1.5.2.7s.1.5.2.7.1.4.1.6.1.4.2.6c.2.7.4 1.3.5 2s.3 1.4.5 2c.1.3.2.6.2.8s.1.6.2.8a.9.9 0 0 1 .1.5c0 .2.1.3.2.4 0 0 .1 0 .1.1h.1.1.1c.1-.1.2-.3.2-.5s.1-.3.1-.5c.1-.3.2-.6.2-.9s.1-.6.2-.9l.6-2.4c.2-.8.3-1.6.6-2.4.1-.3.2-.6.2-.9s.1-.6.2-.9c0-.1.1-.2.1-.2v-.2c.1-.3.1-.5.2-.8s.1-.5.2-.8c0-.1.1-.3.1-.5s.1-.3.2-.4.3-.1.5-.2h.6 1.5.5c.1 0 .3 0 .4.1.2.1.3.2.2.5 0 .2-.1.4-.1.6-.1.4-.3.9-.4 1.3-.1.5-.2.9-.4 1.3 0 .1-.1.2-.1.3s0 .2-.1.3l-.3 1-.3 1c0 .1-.1.2-.1.3s0 .2-.1.3c-.1.2-.2.5-.2.7s-.1.5-.2.7c0 .1-.1.2-.1.2s0 .2-.1.2c-.1.3-.2.5-.2.8s-.1.5-.2.8c-.1.2-.1.4-.1.5 0 .2-.1.3-.1.5l-.6 2.1c-.2.7-.3 1.4-.6 2.1 0 .1-.1.2-.1.4 0 .1 0 .2-.1.4l-.3 1-.3 1c-.1.2-.1.5-.2.6a.78.78 0 0 1-.4.4c-.1 0-.3.1-.5.1h-.5-1.8-.6c-.2 0-.3-.1-.5-.1-.1-.1-.2-.2-.2-.3s-.1-.3-.1-.4l-.3-1.1c-.1-.4-.2-.7-.2-1.1-.1-.2-.1-.4-.2-.7s-.1-.5-.2-.7-.1-.3-.1-.5-.1-.3-.1-.5c-.1-.4-.3-.9-.4-1.3l-.3-1.4c-.1-.3-.2-.5-.2-.7s-.1-.5-.2-.7c-.1-.3-.2-.6-.2-.9-.1-.3-.1-.6-.2-.9-.1-.1-.1-.3-.1-.4s-.1-.2-.1-.4c0 0-.1-.1-.2-.1h-.1c-.1 0-.2.1-.3.3s-.1.3-.1.5l-.3 1.2-.3 1.2-.6 2.4-.6 2.4c-.1.3-.2.6-.2.9s-.1.6-.2.9-.2.5-.2.8-.1.5-.2.8c-.1.2-.1.3-.1.5s-.1.3-.3.4c-.1.1-.3.1-.5.1h-.6-1.9c-.1 0-.2-.1-.3-.1s-.2 0-.3-.1a1.38 1.38 0 0 1-.3-.4c-.1-.2-.1-.4-.1-.6l-.3-.9-.3-.9c0-.1-.1-.2-.1-.3s0-.2-.1-.3l-.3-.9c-.1-.3-.2-.6-.2-.9 0-.1-.1-.1-.1-.2v-.2c-.1-.3-.2-.5-.2-.8-.1-.3-.1-.6-.2-.8v-.2c0-.1 0-.1-.1-.2-.1-.3-.2-.5-.2-.8s-.1-.5-.2-.8c-.1-.2-.1-.4-.1-.6s-.1-.4-.1-.6c-.1-.2-.1-.4-.1-.5 0-.2-.1-.4-.2-.5-.2-.5-.3-1.1-.4-1.6l-.4-1.6c0-.1-.1-.2-.1-.3s0-.2-.1-.3l-.3-1.2-.3-1.2c0-.1-.1-.3-.1-.6-.1-.3-.1-.4 0-.6.1-.1.2-.2.4-.2h.1.1z"/></g></svg>