<svg xmlns="http://www.w3.org/2000/svg" xmlns:xlink="http://www.w3.org/1999/xlink" width="278.589" height="84.954" overflow="visible" xmlns:v="https://vecta.io/nano"><path fill="#f7dd15" d="M13.638 0h30.83 7.41l2.449.061c.756.039 1.373.257 1.854.656.316.24.555.699.715 1.377s.26 1.414.299 2.211v2.451l-.059 2.211v1.615c0 .52-.08.977-.238 1.375-.398.957-1.057 1.494-1.973 1.613s-2.053.18-3.406.18h-9.201-12.907l-3.406.061c-1.156.04-2.051.299-2.688.775-.398.32-.719.777-.957 1.375s-.418 1.275-.537 2.033l-.299 2.33c-.08.797-.199 1.473-.357 2.031a15.67 15.67 0 0 0-.359 1.912 16.46 16.46 0 0 1-.357 1.912c-.082.238-.121.637-.121 1.195-.16.398-.238.857-.238 1.375s.078.936.238 1.254c.08.16.16.279.24.357l.357.359c.717.08 1.314 0 1.793-.238l1.314-.719a8.85 8.85 0 0 1 1.672-.955l1.793-.717c.957-.398 2.092-.697 3.406-.896l4.182-.418c1.473-.08 2.908-.041 4.303.119s2.609.398 3.645.717l2.689.957a13.85 13.85 0 0 1 2.568 1.193c4.939 2.869 8.564 6.893 10.875 12.07a19.31 19.31 0 0 1 .955 2.93l.719 3.166c.238.957.436 2.111.596 3.467s.24 2.709.24 4.063-.08 2.689-.24 4.004-.398 2.449-.715 3.406l-1.377 3.705a22.86 22.86 0 0 1-1.611 3.465c-.479.797-.977 1.555-1.494 2.271a28.55 28.55 0 0 1-1.613 2.031c-.08.08-.16.141-.238.18s-.16.1-.24.178a30.07 30.07 0 0 1-.955 1.137c-.32.359-.678.697-1.076 1.016-.08.08-.141.16-.18.238s-.139.16-.297.24a30.07 30.07 0 0 0-1.137.955 26.9 26.9 0 0 1-1.135.957c-2.551 1.832-5.457 3.266-8.723 4.301a11.1 11.1 0 0 1-2.033.539 68.69 68.69 0 0 0-2.27.418c-.637.125-1.314.203-2.031.234s-1.516.078-2.391.141c-.32 0-.639.02-.957.061a2.66 2.66 0 0 1-.955-.061h-.836-1.256-1.254a11.99 11.99 0 0 0-2.689-.418c-.916-.041-1.813-.182-2.688-.422-1.832-.559-3.586-1.156-5.258-1.797s-3.227-1.398-4.66-2.277c-.48-.318-.939-.637-1.377-.957s-.896-.68-1.373-1.08l-.717-.719c-.398-.238-.738-.518-1.016-.838s-.539-.639-.777-.959c-.318-.398-.637-.738-.955-1.02a4.17 4.17 0 0 1-.836-1.018c-.797-1.117-1.475-2.316-2.033-3.596a47.43 47.43 0 0 1-1.553-4.074c-.16-.639-.359-1.578-.598-2.816s-.158-2.176.24-2.816a2.39 2.39 0 0 1 1.732-1.139c.756-.119 1.652-.18 2.688-.18h6.453 2.092c.676 0 1.293.119 1.852.357.797.398 1.334.996 1.613 1.793s.578 1.594.896 2.391a22.48 22.48 0 0 0 .955 1.732c.318.52.678 1.057 1.076 1.613a4.1 4.1 0 0 0 .836.838l.957.715a5.24 5.24 0 0 0 1.674 1.314c1.113.639 2.688 1.137 4.719 1.496s3.924.299 5.678-.182c1.195-.396 2.25-.854 3.166-1.373s1.813-1.096 2.689-1.732c.398-.238.717-.518.955-.836a12.55 12.55 0 0 0 .717-1.076 15.76 15.76 0 0 0 1.793-2.688c.477-.916.916-1.973 1.314-3.168.158-.955.318-1.711.479-2.268v-1.072c.158-.477.238-1.191.238-2.145s-.08-1.668-.238-2.146c-.16-.555-.301-1.131-.42-1.727a13.56 13.56 0 0 0-.416-1.609c-.957-2.305-2.174-4.213-3.646-5.727s-3.484-2.629-6.033-3.346c-.398-.16-.797-.24-1.195-.24s-.797-.078-1.195-.238h-.955c-.48-.158-1.059-.197-1.734-.119s-1.215.199-1.613.357c-.398.082-.738.121-1.016.121a3.78 3.78 0 0 0-.896.119c-.877.32-1.693.678-2.449 1.076a15.42 15.42 0 0 0-2.092 1.314 7.73 7.73 0 0 0-1.852 1.732c-.52.678-1.217 1.215-2.092 1.613s-2.012.557-3.406.477A74.87 74.87 0 0 0 9.813 46c-.559 0-1.135.041-1.732.121S6.985 46.16 6.587 46H5.513c-.879-.158-1.477-.357-1.793-.598-.719-.637-.957-1.631-.717-2.986a53.52 53.52 0 0 0 .596-3.285c.16-1.074.359-2.17.598-3.287.08-.316.121-.596.121-.836a3.49 3.49 0 0 1 .119-.836c.158-.797.297-1.592.418-2.389s.258-1.594.418-2.391c.16-.637.299-1.334.418-2.092a23.81 23.81 0 0 1 .418-2.09c.08-.398.121-.836.121-1.314s.078-.916.238-1.314c.477-1.752.836-3.564 1.074-5.436a57.11 57.11 0 0 1 .957-5.438c.078-.238.119-.477.119-.717s.039-.438.119-.598a65.97 65.97 0 0 0 .418-2.568c.119-.836.299-1.691.539-2.568l.418-2.33c.119-.676.418-1.334.896-1.973.318-.396.877-.676 1.674-.836.158-.078.316-.098.477-.059A.68.68 0 0 0 13.638 0z"/><g fill="#fff"><path d="M101.761 79.694c.063.189.054.362-.024.519s-.165.268-.259.33c-.189.157-.448.228-.778.212l-1.013-.023h-2.592c-.503 0-.942-.023-1.319-.07s-.66-.229-.849-.543c-.252-.408-.393-.91-.424-1.508s-.11-1.162-.235-1.696c0-.125-.008-.243-.023-.354a2.12 2.12 0 0 1-.023-.307 4.9 4.9 0 0 1-.142-1.201 6.45 6.45 0 0 0-.095-1.154c-.031-.094-.047-.235-.047-.425l-.165-1.06c-.047-.362-.118-.715-.212-1.061-.252-.723-.55-1.366-.896-1.932s-.833-.99-1.461-1.273a2.7 2.7 0 0 0-.472-.141 4.37 4.37 0 0 1-.518-.142c-.566-.188-1.218-.283-1.956-.283h-2.191-3.864l-.66.142c-.188.032-.346.126-.471.283-.252.314-.361.801-.33 1.461l.048 1.79v6.032l-.031.777-.031.778v.684c0 .205-.032.385-.095.541-.095.283-.283.472-.565.565-.158.063-.347.095-.566.095h-.708-2.124l-1.604.023c-.566.015-.99-.086-1.273-.307-.252-.156-.377-.447-.377-.871v-1.249-28.624l-.024-1.082c-.015-.377.056-.675.214-.895.125-.188.361-.345.709-.471.063-.031.134-.039.213-.023s.149.008.212-.023h16.04l1.437.023c.456.015.888.071 1.297.165.156.063.321.094.494.094s.338.031.495.094l.659.189c.22.062.439.141.66.234a10.68 10.68 0 0 1 2.168 1.271c.659.502 1.209 1.083 1.649 1.741a2.36 2.36 0 0 1 .306.494c.078.173.181.338.307.494a5.73 5.73 0 0 1 .565 1.364l.425 1.553c.031.126.039.252.023.377a.65.65 0 0 0 .07.376v.424c.063.251.078.557.047.918s-.078.651-.141.87c-.063.251-.095.479-.095.683s-.031.416-.094.635l-.472 1.342c-.157.424-.361.823-.612 1.199-.063.095-.143.197-.236.307l-.235.305-.307.377a2.27 2.27 0 0 1-.353.329l-.566.471-.612.471-.377.307c-.126.109-.22.243-.282.399-.063.188-.032.346.094.471a2.19 2.19 0 0 0 .33.282l.942.753c.314.251.581.549.801.894a7.71 7.71 0 0 1 .896 1.649c.22.565.424 1.209.613 1.932a5.28 5.28 0 0 1 .117.896 5.27 5.27 0 0 0 .118.895l.023.542.023.542a1.13 1.13 0 0 1 .023.4c-.016.142-.008.291.023.447a1.03 1.03 0 0 1 .023.378c-.016.126-.008.268.024.424a5.02 5.02 0 0 1 .094.989c0 .345.031.676.095.99l.141.848.188.849.193.799zM93.984 58.43c.063-.345.07-.768.023-1.27s-.102-.878-.164-1.129c-.063-.125-.095-.235-.095-.329s-.032-.188-.095-.282c-.377-.972-1.068-1.677-2.073-2.116-.534-.251-1.146-.393-1.838-.424l-2.168-.047h-5.466c-.063.063-.127.086-.189.07a.75.75 0 0 0-.188-.023c-.377.095-.629.252-.754.472-.158.251-.229.572-.213.965l.024 1.154v4.381 1.131c0 .377.078.676.235.895.125.189.329.315.612.378s.597.109.942.141.707.039 1.084.023l.99-.023h2.78l.706.023c.252.015.472-.013.66-.086h.612a2.99 2.99 0 0 1 .73-.094c.235 0 .463-.031.684-.095a5.79 5.79 0 0 0 1.413-.61 3.46 3.46 0 0 0 1.037-.988c.188-.281.33-.595.425-.94l.286-1.177z"/><use xlink:href="#B"/><path d="M132.854 56.454h3.44l.989.023c.314.015.581.087.801.212.346.221.589.621.73 1.202l.448 1.531.989 3.181.99 3.229.706 2.31.754 2.262.307.896c.109.314.338.471.684.471.063-.063.109-.102.141-.117s.079-.056.142-.118c.094-.156.173-.313.235-.471l.189-.52a5.22 5.22 0 0 0 .353-1.083c.079-.377.181-.738.307-1.084l1.249-3.982 1.249-3.982c.156-.377.282-.762.377-1.154s.204-.762.33-1.107a7.1 7.1 0 0 1 .235-.754c.094-.251.235-.455.424-.612.094-.063.299-.157.613-.283.188-.063.392-.086.612-.07l.612.023h2.31l.966.023c.298.016.525.103.684.259.188.158.259.386.212.685s-.103.542-.165.729l-.472 1.391-.471 1.39a3.75 3.75 0 0 0-.213.637l-.164.589a9.2 9.2 0 0 0-.4 1.037l-.354 1.036a1.66 1.66 0 0 0-.071.307c-.016.11-.055.212-.117.306-.189.472-.354.951-.495 1.438l-.447 1.438-.99 2.898-1.036 2.898-.425 1.296-.424 1.296-.142.4c-.031.11-.079.244-.142.4l-.354 1.061-.353 1.061-.425.966c-.126.299-.361.511-.707.636-.252.095-.519.134-.801.118l-.849-.023h-3.063-1.014c-.33 0-.62-.063-.871-.188a1.31 1.31 0 0 1-.472-.589l-.282-.778c-.158-.377-.3-.77-.425-1.178l-.424-1.179c-.063-.125-.103-.243-.118-.353s-.055-.243-.117-.401c-.158-.377-.3-.77-.425-1.178l-.424-1.226c-.063-.156-.11-.306-.142-.447a2.9 2.9 0 0 0-.142-.448 8.05 8.05 0 0 1-.33-.871l-.282-.872a.54.54 0 0 1-.094-.307.54.54 0 0 0-.095-.306 5.98 5.98 0 0 1-.307-.849 8.83 8.83 0 0 0-.306-.896l-.802-2.238-.754-2.285c-.346-.848-.644-1.704-.896-2.568l-.848-2.568-.424-1.272c-.032-.094-.056-.212-.071-.354a.7.7 0 0 1 .071-.4c.094-.22.313-.377.659-.472.163-.005.273-.021.337-.052zm31.885-8.933c.221.25.331.625.331 1.125v1.453 1.266c0 .438-.11.734-.331.891-.189.156-.435.25-.734.281a9.44 9.44 0 0 1-.97.047h-2.649a8.1 8.1 0 0 1-.923-.047c-.269-.031-.497-.126-.687-.283-.127-.094-.214-.274-.261-.542s-.078-.565-.094-.896v-1.014l.023-.896.023-.684c.016-.204.07-.385.166-.542.063-.125.149-.22.26-.282l.355-.189c.063 0 .142-.01.236-.031s.173-.031.236-.031h3.455c.314 0 .614.019.898.054s.508.142.666.32zm.331 30.658l-.048 1.603c-.031.44-.315.738-.852.895a1.57 1.57 0 0 1-.615.071l-.709-.023h-2.65a7.19 7.19 0 0 1-.828-.047c-.269-.031-.466-.126-.592-.283-.189-.22-.292-.494-.308-.824l-.023-1.061V58.622v-.942c0-.314.063-.565.189-.755.189-.219.457-.36.805-.424.063-.031.149-.039.26-.023s.197.008.261-.023h2.365l.639-.023c.237-.015.434-.008.592.023h.379c.189.063.362.11.521.142s.283.126.379.282c.126.157.197.377.213.66l.023.896v19.744z"/><use xlink:href="#B" x="63.677"/><path d="M196.673 56.396h3.487l.989.025c.314.016.565.092.754.225a1.36 1.36 0 0 1 .447.495c.109.204.196.439.259.707l.189.801.188.73a34.02 34.02 0 0 1 .966 3.394l.919 3.439c.063.188.11.369.142.542s.078.354.142.542l.4 1.438c.109.487.243.966.4 1.437l.235.755c.093.283.267.455.519.518.157.032.283-.054.377-.259a3.49 3.49 0 0 1 .236-.448 8.05 8.05 0 0 0 .353-1.366 7.78 7.78 0 0 1 .354-1.366 7.76 7.76 0 0 0 .235-.872l.189-.872.589-2.309.589-2.31.235-.989c.062-.314.142-.628.236-.942l.377-1.696c.125-.66.361-1.115.707-1.367.219-.133.47-.208.753-.225l.943-.025h2.45l1.036.045c.314.029.581.119.802.268a.99.99 0 0 1 .329.495l.189.589.306 1.297c.078.424.196.855.354 1.295l.967 3.771.919 3.77c.125.377.228.763.306 1.155s.181.762.307 1.107c.125.439.251.77.377.989.031.031.07.056.117.071s.087.055.118.117c.283-.031.464-.133.542-.306l.26-.59a12.37 12.37 0 0 0 .471-1.578l.425-1.626.234-.919.236-.919a24.67 24.67 0 0 0 .849-2.969 28.28 28.28 0 0 1 .801-2.922c.156-.439.298-.966.424-1.579s.33-1.028.613-1.249c.22-.148.471-.238.754-.268s.597-.045.942-.045h2.498.801c.282 0 .518.042.707.125.313.126.486.33.518.613s-.016.597-.141.942l-.637 2.097-.683 2.097-2.192 6.904-2.19 6.903-.448 1.484-.447 1.485-.354.919c-.11.268-.322.464-.636.589-.314.157-.724.219-1.226.188l-1.367-.048-1.885.024c-.754.015-1.288-.055-1.602-.213a1.53 1.53 0 0 1-.425-.541 3.73 3.73 0 0 1-.235-.684 8.45 8.45 0 0 1-.354-1.296l-.307-1.296a7.76 7.76 0 0 1-.235-.872 5.68 5.68 0 0 0-.282-.919l-.731-2.827a25.89 25.89 0 0 0-.777-2.875c-.188-.565-.346-1.162-.471-1.791s-.377-1.131-.754-1.508c-.314 0-.512.118-.59.354l-.259.73c-.221.629-.386 1.257-.495 1.885a11.78 11.78 0 0 1-.494 1.885 35.82 35.82 0 0 0-.872 3.465l-.872 3.463-.188.755-.188.801c-.063.252-.149.487-.259.707s-.244.393-.4.518-.378.196-.66.212l-.942.023h-2.498-1.366l-.519-.094c-.157-.031-.299-.078-.424-.142-.221-.156-.378-.376-.472-.659l-.282-.849-.472-1.461-.471-1.508-2.239-6.975-2.19-6.975-.613-1.838-.565-1.791a9.28 9.28 0 0 1-.212-.777c-.079-.33-.056-.589.07-.777.094-.125.299-.256.613-.393.187.002.313-.018.377-.06z"/></g><g fill="#f7dd15"><path d="M92.166.461l4.548 13.688 14.423.095-11.614 8.554 4.367 13.747-11.724-8.402-11.724 8.402 4.367-13.747-11.614-8.554 14.423-.095z"/><use xlink:href="#C"/><use xlink:href="#C" x="43"/><use xlink:href="#C" x="85"/><use xlink:href="#C" x="127"/></g><defs ><path id="B" d="M129.759 68.354c.063.252.063.534 0 .849s-.174.519-.33.612c-.157.126-.385.213-.684.26s-.628.079-.989.095h-1.084l-.966-.024h-11.498-.637a1.44 1.44 0 0 0-.542.094c-.252.126-.408.252-.471.377-.063.063-.127.182-.189.354s-.078.338-.047.494a2.35 2.35 0 0 1 .118.542 2.35 2.35 0 0 0 .118.542c.251.754.558 1.375.919 1.861s.855.919 1.484 1.296a2.17 2.17 0 0 0 .777.307c.267.047.541.117.824.211.251.063.597.11 1.037.142s.816.016 1.131-.047h.424l.872-.212.777-.26c.314-.156.668-.36 1.061-.612s.683-.502.872-.754l.494-.636a1.52 1.52 0 0 1 .637-.448c.314-.156.715-.228 1.202-.212l1.343.023.589-.023a1.08 1.08 0 0 1 .542.086h.472c.313.063.533.143.659.236.125.063.196.204.212.424s-.008.409-.07.565c-.157.44-.33.833-.519 1.179a9.47 9.47 0 0 1-.66 1.036c-.691 1.037-1.477 1.869-2.355 2.498s-1.979 1.162-3.299 1.602c-.346.125-.691.204-1.037.236a6.99 6.99 0 0 0-1.084.188 1.13 1.13 0 0 1-.4.023c-.142-.016-.275-.008-.4.023h-.519c-.157.063-.338.086-.542.07a4.69 4.69 0 0 1-.542-.07c-.252-.031-.472-.031-.66 0a1.39 1.39 0 0 1-.612-.047 1.38 1.38 0 0 0-.519-.095c-.189 0-.361-.031-.518-.094l-1.037-.212c-.346-.078-.66-.196-.942-.354l-.967-.353c-.299-.11-.573-.243-.824-.401-1.006-.628-1.901-1.358-2.687-2.19a10.59 10.59 0 0 1-1.932-2.898 6.54 6.54 0 0 1-.377-1.061c-.095-.361-.221-.731-.377-1.108-.031-.125-.047-.243-.047-.354a1.5 1.5 0 0 0-.048-.354c-.126-.377-.204-.785-.235-1.226l-.094-1.321-.024-.519a1.84 1.84 0 0 1 .024-.52v-.564l.141-1.132.33-1.557a6.63 6.63 0 0 1 .425-1.415c1.351-3.271 3.644-5.582 6.88-6.935a5.97 5.97 0 0 1 1.343-.4l1.438-.307a5.79 5.79 0 0 1 .707-.048c.22 0 .455-.016.707-.047 1.602-.031 2.977.149 4.123.542s2.175.903 3.087 1.532a10.07 10.07 0 0 1 .848.636 6.83 6.83 0 0 1 .755.73 1.07 1.07 0 0 0 .377.377l.706 1.061.707 1.107a6.12 6.12 0 0 1 .4.873l.354.966a8.49 8.49 0 0 1 .377 1.272l.33 1.319c.063.252.086.526.07.825s.008.573.071.824v.521zm-7.069-2.76c.219-.316.242-.703.07-1.162l-.4-1.02c-.44-.854-1.021-1.51-1.744-1.969s-1.729-.703-3.016-.735c-.095.063-.205.078-.33.047s-.236-.031-.33 0a1.76 1.76 0 0 1-.519.117c-.189.015-.361.055-.518.117-1.383.438-2.404 1.297-3.063 2.578-.063.125-.134.289-.212.492s-.134.406-.165.609-.023.398.023.586a.84.84 0 0 0 .307.469c.251.156.597.234 1.036.234h1.272l5.231.063 1.39-.023c.488-.016.81-.15.968-.403z"/><path id="C" d="M132.618.461l4.548 13.688 14.423.095-11.613 8.554 4.366 13.747-11.724-8.402-11.723 8.402 4.366-13.747-11.614-8.554 14.423-.095z"/></defs></svg>